G04 (created by PCBNEW (2013-07-07 BZR 4022)-stable) date 2/2/2014 1:41:28 AM*
%MOIN*%
G04 Gerber Fmt 3.4, Leading zero omitted, Abs format*
%FSLAX34Y34*%
G01*
G70*
G90*
G04 APERTURE LIST*
%ADD10C,0.00590551*%
%ADD11R,0.0118X0.0512*%
%ADD12R,0.045X0.025*%
%ADD13C,0.055*%
%ADD14C,0.1*%
%ADD15R,0.055X0.055*%
%ADD16C,0.035*%
%ADD17C,0.01*%
G04 APERTURE END LIST*
G54D10*
G54D11*
X79920Y-59860D03*
X80170Y-59860D03*
X80430Y-59860D03*
X80680Y-59860D03*
X80940Y-59860D03*
X81195Y-59860D03*
X81450Y-59860D03*
X81450Y-62060D03*
X81195Y-62060D03*
X80940Y-62060D03*
X80680Y-62060D03*
X80425Y-62060D03*
X80170Y-62060D03*
X79915Y-62060D03*
G54D12*
X78440Y-61340D03*
X78440Y-61940D03*
X79220Y-61340D03*
X79220Y-61940D03*
X80420Y-62900D03*
X80420Y-63500D03*
X81160Y-62900D03*
X81160Y-63500D03*
X81900Y-62900D03*
X81900Y-63500D03*
X82480Y-60380D03*
X82480Y-59780D03*
G54D13*
X81180Y-65940D03*
X80180Y-65940D03*
G54D14*
X82960Y-57920D03*
X82960Y-65760D03*
X76220Y-60500D03*
X76220Y-62400D03*
G54D15*
X81680Y-64340D03*
G54D13*
X80680Y-64340D03*
X79680Y-64340D03*
X78680Y-64340D03*
X77680Y-64340D03*
X76680Y-64340D03*
G54D15*
X81680Y-58740D03*
G54D13*
X80680Y-58740D03*
X79680Y-58740D03*
X78680Y-58740D03*
X77680Y-58740D03*
X76680Y-58740D03*
X76420Y-65880D03*
X77420Y-65880D03*
G54D16*
X83300Y-61720D03*
X78680Y-60700D03*
X82200Y-62200D03*
X80680Y-60760D03*
X79560Y-62600D03*
G54D17*
X81450Y-59860D02*
X81450Y-59410D01*
X81450Y-59410D02*
X81460Y-59400D01*
X81160Y-62900D02*
X81160Y-62780D01*
X80940Y-62560D02*
X80940Y-62060D01*
X81160Y-62780D02*
X80940Y-62560D01*
X82480Y-59780D02*
X82800Y-59780D01*
X82200Y-61600D02*
X82200Y-62200D01*
X82960Y-60840D02*
X82200Y-61600D01*
X82960Y-59940D02*
X82960Y-60840D01*
X82800Y-59780D02*
X82960Y-59940D01*
X81900Y-63500D02*
X82480Y-63500D01*
X82580Y-62580D02*
X82380Y-62380D01*
X82380Y-62380D02*
X82200Y-62200D01*
X82580Y-63400D02*
X82580Y-62580D01*
X82480Y-63500D02*
X82580Y-63400D01*
X80420Y-63500D02*
X81160Y-63500D01*
X81160Y-63500D02*
X81900Y-63500D01*
X80420Y-62900D02*
X80420Y-62065D01*
X80420Y-62065D02*
X80425Y-62060D01*
X79220Y-61340D02*
X79220Y-60560D01*
X79220Y-60560D02*
X79920Y-59860D01*
X79220Y-61340D02*
X78440Y-61340D01*
X79900Y-61120D02*
X80880Y-61120D01*
X80940Y-60440D02*
X80940Y-59860D01*
X81160Y-60660D02*
X80940Y-60440D01*
X81160Y-60840D02*
X81160Y-60660D01*
X80880Y-61120D02*
X81160Y-60840D01*
X80630Y-61500D02*
X81140Y-61500D01*
X81195Y-61555D02*
X81195Y-62060D01*
X81140Y-61500D02*
X81195Y-61555D01*
X79900Y-61500D02*
X80630Y-61500D01*
X80630Y-61500D02*
X80600Y-61500D01*
X80680Y-61580D02*
X80680Y-62060D01*
X80600Y-61500D02*
X80680Y-61580D01*
X79220Y-61940D02*
X79460Y-61940D01*
X79460Y-61940D02*
X79900Y-61500D01*
X80170Y-59860D02*
X80170Y-60390D01*
X80170Y-60390D02*
X80260Y-60480D01*
X80430Y-59860D02*
X80430Y-60480D01*
X80430Y-60480D02*
X80420Y-60480D01*
X80170Y-62060D02*
X80170Y-61770D01*
X80020Y-60480D02*
X80260Y-60480D01*
X80260Y-60480D02*
X80420Y-60480D01*
X79900Y-60600D02*
X80020Y-60480D01*
X79900Y-61500D02*
X79900Y-61120D01*
X79900Y-61120D02*
X79900Y-60600D01*
X80170Y-61770D02*
X79900Y-61500D01*
X81900Y-62900D02*
X81900Y-62510D01*
X81900Y-62510D02*
X81450Y-62060D01*
X80680Y-59860D02*
X80680Y-60760D01*
X82480Y-60380D02*
X81300Y-60380D01*
X81180Y-59875D02*
X81195Y-59860D01*
X81180Y-60260D02*
X81180Y-59875D01*
X81300Y-60380D02*
X81180Y-60260D01*
X79915Y-62060D02*
X79915Y-62245D01*
X79915Y-62245D02*
X79560Y-62600D01*
G54D10*
G36*
X85000Y-66540D02*
X83710Y-66540D01*
X83710Y-65611D01*
X83710Y-57771D01*
X83596Y-57495D01*
X83385Y-57284D01*
X83109Y-57170D01*
X82811Y-57169D01*
X82535Y-57283D01*
X82324Y-57494D01*
X82210Y-57770D01*
X82209Y-58068D01*
X82323Y-58344D01*
X82534Y-58555D01*
X82810Y-58669D01*
X83108Y-58670D01*
X83384Y-58556D01*
X83595Y-58345D01*
X83709Y-58069D01*
X83710Y-57771D01*
X83710Y-65611D01*
X83596Y-65335D01*
X83385Y-65124D01*
X83260Y-65072D01*
X83260Y-60840D01*
X83260Y-59940D01*
X83237Y-59825D01*
X83172Y-59727D01*
X83172Y-59727D01*
X83012Y-59567D01*
X82914Y-59502D01*
X82904Y-59500D01*
X82846Y-59443D01*
X82754Y-59405D01*
X82655Y-59404D01*
X82205Y-59404D01*
X82205Y-59405D01*
X82205Y-58965D01*
X82205Y-58415D01*
X82167Y-58323D01*
X82096Y-58253D01*
X82004Y-58215D01*
X81905Y-58214D01*
X81355Y-58214D01*
X81263Y-58252D01*
X81193Y-58323D01*
X81155Y-58415D01*
X81154Y-58502D01*
X81140Y-58467D01*
X81047Y-58442D01*
X80977Y-58513D01*
X80977Y-58372D01*
X80952Y-58279D01*
X80755Y-58210D01*
X80547Y-58221D01*
X80407Y-58279D01*
X80382Y-58372D01*
X80680Y-58669D01*
X80977Y-58372D01*
X80977Y-58513D01*
X80750Y-58740D01*
X81047Y-59037D01*
X81140Y-59012D01*
X81154Y-58971D01*
X81154Y-59064D01*
X81192Y-59156D01*
X81263Y-59226D01*
X81355Y-59264D01*
X81454Y-59265D01*
X82004Y-59265D01*
X82096Y-59227D01*
X82166Y-59156D01*
X82204Y-59064D01*
X82205Y-58965D01*
X82205Y-59405D01*
X82113Y-59442D01*
X82043Y-59513D01*
X82005Y-59605D01*
X82004Y-59704D01*
X82004Y-59954D01*
X82042Y-60046D01*
X82076Y-60079D01*
X82076Y-60080D01*
X81759Y-60080D01*
X81759Y-60066D01*
X81759Y-59972D01*
X81696Y-59910D01*
X81504Y-59910D01*
X81504Y-59810D01*
X81696Y-59810D01*
X81759Y-59747D01*
X81759Y-59653D01*
X81758Y-59554D01*
X81720Y-59462D01*
X81650Y-59391D01*
X81558Y-59353D01*
X81542Y-59354D01*
X81479Y-59416D01*
X81479Y-59495D01*
X81466Y-59462D01*
X81420Y-59416D01*
X81420Y-59416D01*
X81358Y-59354D01*
X81341Y-59353D01*
X81322Y-59361D01*
X81303Y-59354D01*
X81204Y-59353D01*
X81086Y-59353D01*
X81067Y-59361D01*
X81048Y-59354D01*
X80977Y-59353D01*
X80977Y-59107D01*
X80680Y-58810D01*
X80609Y-58881D01*
X80609Y-58740D01*
X80312Y-58442D01*
X80219Y-58467D01*
X80183Y-58570D01*
X80140Y-58467D01*
X80047Y-58442D01*
X79977Y-58513D01*
X79977Y-58372D01*
X79952Y-58279D01*
X79755Y-58210D01*
X79547Y-58221D01*
X79407Y-58279D01*
X79382Y-58372D01*
X79680Y-58669D01*
X79977Y-58372D01*
X79977Y-58513D01*
X79750Y-58740D01*
X80047Y-59037D01*
X80140Y-59012D01*
X80176Y-58909D01*
X80219Y-59012D01*
X80312Y-59037D01*
X80609Y-58740D01*
X80609Y-58881D01*
X80382Y-59107D01*
X80407Y-59200D01*
X80604Y-59269D01*
X80812Y-59258D01*
X80952Y-59200D01*
X80977Y-59107D01*
X80977Y-59353D01*
X80949Y-59353D01*
X80831Y-59353D01*
X80810Y-59362D01*
X80788Y-59354D01*
X80689Y-59353D01*
X80571Y-59353D01*
X80555Y-59360D01*
X80538Y-59354D01*
X80439Y-59353D01*
X80321Y-59353D01*
X80300Y-59362D01*
X80278Y-59354D01*
X80179Y-59353D01*
X80061Y-59353D01*
X80045Y-59360D01*
X80028Y-59354D01*
X79977Y-59353D01*
X79977Y-59107D01*
X79680Y-58810D01*
X79609Y-58881D01*
X79609Y-58740D01*
X79312Y-58442D01*
X79219Y-58467D01*
X79183Y-58570D01*
X79140Y-58467D01*
X79047Y-58442D01*
X78977Y-58513D01*
X78977Y-58372D01*
X78952Y-58279D01*
X78755Y-58210D01*
X78547Y-58221D01*
X78407Y-58279D01*
X78382Y-58372D01*
X78680Y-58669D01*
X78977Y-58372D01*
X78977Y-58513D01*
X78750Y-58740D01*
X79047Y-59037D01*
X79140Y-59012D01*
X79176Y-58909D01*
X79219Y-59012D01*
X79312Y-59037D01*
X79609Y-58740D01*
X79609Y-58881D01*
X79382Y-59107D01*
X79407Y-59200D01*
X79604Y-59269D01*
X79812Y-59258D01*
X79952Y-59200D01*
X79977Y-59107D01*
X79977Y-59353D01*
X79929Y-59353D01*
X79811Y-59353D01*
X79719Y-59391D01*
X79649Y-59462D01*
X79611Y-59554D01*
X79610Y-59653D01*
X79610Y-59744D01*
X79007Y-60347D01*
X78977Y-60393D01*
X78977Y-59107D01*
X78680Y-58810D01*
X78609Y-58881D01*
X78609Y-58740D01*
X78312Y-58442D01*
X78219Y-58467D01*
X78183Y-58570D01*
X78140Y-58467D01*
X78047Y-58442D01*
X77977Y-58513D01*
X77977Y-58372D01*
X77952Y-58279D01*
X77755Y-58210D01*
X77547Y-58221D01*
X77407Y-58279D01*
X77382Y-58372D01*
X77680Y-58669D01*
X77977Y-58372D01*
X77977Y-58513D01*
X77750Y-58740D01*
X78047Y-59037D01*
X78140Y-59012D01*
X78176Y-58909D01*
X78219Y-59012D01*
X78312Y-59037D01*
X78609Y-58740D01*
X78609Y-58881D01*
X78382Y-59107D01*
X78407Y-59200D01*
X78604Y-59269D01*
X78812Y-59258D01*
X78952Y-59200D01*
X78977Y-59107D01*
X78977Y-60393D01*
X78942Y-60445D01*
X78920Y-60560D01*
X78920Y-60975D01*
X78853Y-61002D01*
X78830Y-61026D01*
X78806Y-61003D01*
X78714Y-60965D01*
X78615Y-60964D01*
X78165Y-60964D01*
X78073Y-61002D01*
X78003Y-61073D01*
X77977Y-61136D01*
X77977Y-59107D01*
X77680Y-58810D01*
X77609Y-58881D01*
X77609Y-58740D01*
X77312Y-58442D01*
X77219Y-58467D01*
X77183Y-58570D01*
X77140Y-58467D01*
X77047Y-58442D01*
X76977Y-58513D01*
X76977Y-58372D01*
X76952Y-58279D01*
X76755Y-58210D01*
X76547Y-58221D01*
X76407Y-58279D01*
X76382Y-58372D01*
X76680Y-58669D01*
X76977Y-58372D01*
X76977Y-58513D01*
X76750Y-58740D01*
X77047Y-59037D01*
X77140Y-59012D01*
X77176Y-58909D01*
X77219Y-59012D01*
X77312Y-59037D01*
X77609Y-58740D01*
X77609Y-58881D01*
X77382Y-59107D01*
X77407Y-59200D01*
X77604Y-59269D01*
X77812Y-59258D01*
X77952Y-59200D01*
X77977Y-59107D01*
X77977Y-61136D01*
X77965Y-61165D01*
X77964Y-61264D01*
X77964Y-61514D01*
X78002Y-61606D01*
X78036Y-61640D01*
X78002Y-61673D01*
X77964Y-61765D01*
X77965Y-61827D01*
X78027Y-61890D01*
X78390Y-61890D01*
X78390Y-61882D01*
X78490Y-61882D01*
X78490Y-61890D01*
X78497Y-61890D01*
X78497Y-61990D01*
X78490Y-61990D01*
X78490Y-62252D01*
X78552Y-62315D01*
X78615Y-62315D01*
X78714Y-62314D01*
X78806Y-62276D01*
X78830Y-62253D01*
X78853Y-62276D01*
X78945Y-62314D01*
X79044Y-62315D01*
X79243Y-62315D01*
X79199Y-62358D01*
X79135Y-62515D01*
X79134Y-62684D01*
X79199Y-62840D01*
X79318Y-62960D01*
X79475Y-63024D01*
X79644Y-63025D01*
X79800Y-62960D01*
X79920Y-62841D01*
X79944Y-62781D01*
X79944Y-62824D01*
X79944Y-63074D01*
X79982Y-63166D01*
X80016Y-63199D01*
X79983Y-63233D01*
X79945Y-63325D01*
X79944Y-63424D01*
X79944Y-63674D01*
X79982Y-63766D01*
X80053Y-63836D01*
X80145Y-63874D01*
X80244Y-63875D01*
X80417Y-63875D01*
X80407Y-63879D01*
X80382Y-63972D01*
X80680Y-64269D01*
X80977Y-63972D01*
X80952Y-63879D01*
X80940Y-63875D01*
X80984Y-63875D01*
X81241Y-63875D01*
X81193Y-63923D01*
X81155Y-64015D01*
X81154Y-64102D01*
X81140Y-64067D01*
X81047Y-64042D01*
X80750Y-64340D01*
X81047Y-64637D01*
X81140Y-64612D01*
X81154Y-64571D01*
X81154Y-64664D01*
X81192Y-64756D01*
X81263Y-64826D01*
X81355Y-64864D01*
X81454Y-64865D01*
X82004Y-64865D01*
X82096Y-64827D01*
X82166Y-64756D01*
X82204Y-64664D01*
X82205Y-64565D01*
X82205Y-64015D01*
X82167Y-63923D01*
X82118Y-63875D01*
X82174Y-63875D01*
X82266Y-63837D01*
X82303Y-63800D01*
X82480Y-63800D01*
X82480Y-63799D01*
X82594Y-63777D01*
X82594Y-63777D01*
X82692Y-63712D01*
X82792Y-63612D01*
X82792Y-63612D01*
X82857Y-63514D01*
X82879Y-63400D01*
X82880Y-63400D01*
X82880Y-62580D01*
X82857Y-62465D01*
X82792Y-62367D01*
X82792Y-62367D01*
X82624Y-62200D01*
X82625Y-62115D01*
X82560Y-61959D01*
X82500Y-61898D01*
X82500Y-61724D01*
X83172Y-61052D01*
X83172Y-61052D01*
X83237Y-60954D01*
X83259Y-60840D01*
X83260Y-60840D01*
X83260Y-65072D01*
X83109Y-65010D01*
X82811Y-65009D01*
X82535Y-65123D01*
X82324Y-65334D01*
X82210Y-65610D01*
X82209Y-65908D01*
X82323Y-66184D01*
X82534Y-66395D01*
X82810Y-66509D01*
X83108Y-66510D01*
X83384Y-66396D01*
X83595Y-66185D01*
X83709Y-65909D01*
X83710Y-65611D01*
X83710Y-66540D01*
X81705Y-66540D01*
X81705Y-65836D01*
X81625Y-65643D01*
X81477Y-65495D01*
X81284Y-65415D01*
X81076Y-65414D01*
X80977Y-65455D01*
X80977Y-64707D01*
X80680Y-64410D01*
X80609Y-64481D01*
X80609Y-64340D01*
X80312Y-64042D01*
X80219Y-64067D01*
X80183Y-64170D01*
X80140Y-64067D01*
X80047Y-64042D01*
X79977Y-64113D01*
X79977Y-63972D01*
X79952Y-63879D01*
X79755Y-63810D01*
X79547Y-63821D01*
X79407Y-63879D01*
X79382Y-63972D01*
X79680Y-64269D01*
X79977Y-63972D01*
X79977Y-64113D01*
X79750Y-64340D01*
X80047Y-64637D01*
X80140Y-64612D01*
X80176Y-64509D01*
X80219Y-64612D01*
X80312Y-64637D01*
X80609Y-64340D01*
X80609Y-64481D01*
X80382Y-64707D01*
X80407Y-64800D01*
X80604Y-64869D01*
X80812Y-64858D01*
X80952Y-64800D01*
X80977Y-64707D01*
X80977Y-65455D01*
X80883Y-65494D01*
X80735Y-65642D01*
X80682Y-65768D01*
X80640Y-65667D01*
X80547Y-65642D01*
X80477Y-65713D01*
X80477Y-65572D01*
X80452Y-65479D01*
X80255Y-65410D01*
X80047Y-65421D01*
X79977Y-65450D01*
X79977Y-64707D01*
X79680Y-64410D01*
X79609Y-64481D01*
X79609Y-64340D01*
X79312Y-64042D01*
X79219Y-64067D01*
X79183Y-64170D01*
X79140Y-64067D01*
X79047Y-64042D01*
X78977Y-64113D01*
X78977Y-63972D01*
X78952Y-63879D01*
X78755Y-63810D01*
X78547Y-63821D01*
X78407Y-63879D01*
X78390Y-63945D01*
X78390Y-62252D01*
X78390Y-61990D01*
X78027Y-61990D01*
X77965Y-62052D01*
X77964Y-62114D01*
X78002Y-62206D01*
X78073Y-62276D01*
X78165Y-62314D01*
X78264Y-62315D01*
X78327Y-62315D01*
X78390Y-62252D01*
X78390Y-63945D01*
X78382Y-63972D01*
X78680Y-64269D01*
X78977Y-63972D01*
X78977Y-64113D01*
X78750Y-64340D01*
X79047Y-64637D01*
X79140Y-64612D01*
X79176Y-64509D01*
X79219Y-64612D01*
X79312Y-64637D01*
X79609Y-64340D01*
X79609Y-64481D01*
X79382Y-64707D01*
X79407Y-64800D01*
X79604Y-64869D01*
X79812Y-64858D01*
X79952Y-64800D01*
X79977Y-64707D01*
X79977Y-65450D01*
X79907Y-65479D01*
X79882Y-65572D01*
X80180Y-65869D01*
X80477Y-65572D01*
X80477Y-65713D01*
X80250Y-65940D01*
X80547Y-66237D01*
X80640Y-66212D01*
X80679Y-66102D01*
X80734Y-66237D01*
X80882Y-66384D01*
X81075Y-66464D01*
X81283Y-66465D01*
X81477Y-66385D01*
X81624Y-66237D01*
X81704Y-66044D01*
X81705Y-65836D01*
X81705Y-66540D01*
X80477Y-66540D01*
X80477Y-66307D01*
X80180Y-66010D01*
X80109Y-66081D01*
X80109Y-65940D01*
X79812Y-65642D01*
X79719Y-65667D01*
X79650Y-65864D01*
X79661Y-66072D01*
X79719Y-66212D01*
X79812Y-66237D01*
X80109Y-65940D01*
X80109Y-66081D01*
X79882Y-66307D01*
X79907Y-66400D01*
X80104Y-66469D01*
X80312Y-66458D01*
X80452Y-66400D01*
X80477Y-66307D01*
X80477Y-66540D01*
X78977Y-66540D01*
X78977Y-64707D01*
X78680Y-64410D01*
X78609Y-64481D01*
X78609Y-64340D01*
X78312Y-64042D01*
X78219Y-64067D01*
X78183Y-64170D01*
X78140Y-64067D01*
X78047Y-64042D01*
X77977Y-64113D01*
X77977Y-63972D01*
X77952Y-63879D01*
X77755Y-63810D01*
X77547Y-63821D01*
X77407Y-63879D01*
X77382Y-63972D01*
X77680Y-64269D01*
X77977Y-63972D01*
X77977Y-64113D01*
X77750Y-64340D01*
X78047Y-64637D01*
X78140Y-64612D01*
X78176Y-64509D01*
X78219Y-64612D01*
X78312Y-64637D01*
X78609Y-64340D01*
X78609Y-64481D01*
X78382Y-64707D01*
X78407Y-64800D01*
X78604Y-64869D01*
X78812Y-64858D01*
X78952Y-64800D01*
X78977Y-64707D01*
X78977Y-66540D01*
X77977Y-66540D01*
X77977Y-64707D01*
X77680Y-64410D01*
X77609Y-64481D01*
X77609Y-64340D01*
X77312Y-64042D01*
X77219Y-64067D01*
X77183Y-64170D01*
X77140Y-64067D01*
X77047Y-64042D01*
X76977Y-64113D01*
X76977Y-63972D01*
X76977Y-59107D01*
X76680Y-58810D01*
X76609Y-58881D01*
X76609Y-58740D01*
X76312Y-58442D01*
X76219Y-58467D01*
X76150Y-58664D01*
X76161Y-58872D01*
X76219Y-59012D01*
X76312Y-59037D01*
X76609Y-58740D01*
X76609Y-58881D01*
X76382Y-59107D01*
X76407Y-59200D01*
X76604Y-59269D01*
X76812Y-59258D01*
X76952Y-59200D01*
X76977Y-59107D01*
X76977Y-63972D01*
X76973Y-63959D01*
X76973Y-60629D01*
X76965Y-60331D01*
X76866Y-60091D01*
X76750Y-60040D01*
X76679Y-60110D01*
X76679Y-59969D01*
X76628Y-59853D01*
X76349Y-59746D01*
X76051Y-59754D01*
X75811Y-59853D01*
X75760Y-59969D01*
X76220Y-60429D01*
X76679Y-59969D01*
X76679Y-60110D01*
X76290Y-60500D01*
X76750Y-60959D01*
X76866Y-60908D01*
X76973Y-60629D01*
X76973Y-63959D01*
X76952Y-63879D01*
X76755Y-63810D01*
X76547Y-63821D01*
X76407Y-63879D01*
X76382Y-63972D01*
X76680Y-64269D01*
X76977Y-63972D01*
X76977Y-64113D01*
X76750Y-64340D01*
X77047Y-64637D01*
X77140Y-64612D01*
X77176Y-64509D01*
X77219Y-64612D01*
X77312Y-64637D01*
X77609Y-64340D01*
X77609Y-64481D01*
X77382Y-64707D01*
X77407Y-64800D01*
X77604Y-64869D01*
X77812Y-64858D01*
X77952Y-64800D01*
X77977Y-64707D01*
X77977Y-66540D01*
X77949Y-66540D01*
X77949Y-65955D01*
X77938Y-65747D01*
X77880Y-65607D01*
X77787Y-65582D01*
X77717Y-65653D01*
X77717Y-65512D01*
X77692Y-65419D01*
X77495Y-65350D01*
X77287Y-65361D01*
X77147Y-65419D01*
X77122Y-65512D01*
X77420Y-65809D01*
X77717Y-65512D01*
X77717Y-65653D01*
X77490Y-65880D01*
X77787Y-66177D01*
X77880Y-66152D01*
X77949Y-65955D01*
X77949Y-66540D01*
X77717Y-66540D01*
X77717Y-66247D01*
X77420Y-65950D01*
X77349Y-66021D01*
X77349Y-65880D01*
X77052Y-65582D01*
X76977Y-65602D01*
X76977Y-64707D01*
X76680Y-64410D01*
X76609Y-64481D01*
X76609Y-64340D01*
X76312Y-64042D01*
X76219Y-64067D01*
X76150Y-64264D01*
X76161Y-64472D01*
X76219Y-64612D01*
X76312Y-64637D01*
X76609Y-64340D01*
X76609Y-64481D01*
X76382Y-64707D01*
X76407Y-64800D01*
X76604Y-64869D01*
X76812Y-64858D01*
X76952Y-64800D01*
X76977Y-64707D01*
X76977Y-65602D01*
X76959Y-65607D01*
X76923Y-65710D01*
X76880Y-65607D01*
X76787Y-65582D01*
X76717Y-65653D01*
X76717Y-65512D01*
X76692Y-65419D01*
X76495Y-65350D01*
X76287Y-65361D01*
X76147Y-65419D01*
X76122Y-65512D01*
X76420Y-65809D01*
X76717Y-65512D01*
X76717Y-65653D01*
X76490Y-65880D01*
X76787Y-66177D01*
X76880Y-66152D01*
X76916Y-66049D01*
X76959Y-66152D01*
X77052Y-66177D01*
X77349Y-65880D01*
X77349Y-66021D01*
X77122Y-66247D01*
X77147Y-66340D01*
X77344Y-66409D01*
X77552Y-66398D01*
X77692Y-66340D01*
X77717Y-66247D01*
X77717Y-66540D01*
X76717Y-66540D01*
X76717Y-66247D01*
X76420Y-65950D01*
X76349Y-66021D01*
X76349Y-65880D01*
X76052Y-65582D01*
X75959Y-65607D01*
X75890Y-65804D01*
X75901Y-66012D01*
X75959Y-66152D01*
X76052Y-66177D01*
X76349Y-65880D01*
X76349Y-66021D01*
X76122Y-66247D01*
X76147Y-66340D01*
X76344Y-66409D01*
X76552Y-66398D01*
X76692Y-66340D01*
X76717Y-66247D01*
X76717Y-66540D01*
X75559Y-66540D01*
X75559Y-62765D01*
X75583Y-62824D01*
X75794Y-63035D01*
X76070Y-63149D01*
X76368Y-63150D01*
X76644Y-63036D01*
X76855Y-62825D01*
X76969Y-62549D01*
X76970Y-62251D01*
X76856Y-61975D01*
X76679Y-61799D01*
X76679Y-61030D01*
X76220Y-60570D01*
X75760Y-61030D01*
X75811Y-61146D01*
X76090Y-61253D01*
X76388Y-61245D01*
X76628Y-61146D01*
X76679Y-61030D01*
X76679Y-61799D01*
X76645Y-61764D01*
X76369Y-61650D01*
X76071Y-61649D01*
X75795Y-61763D01*
X75584Y-61974D01*
X75559Y-62034D01*
X75559Y-60874D01*
X75573Y-60908D01*
X75689Y-60959D01*
X76149Y-60500D01*
X75689Y-60040D01*
X75573Y-60091D01*
X75559Y-60127D01*
X75559Y-57099D01*
X85000Y-57099D01*
X85000Y-66540D01*
X85000Y-66540D01*
G37*
G54D17*
X85000Y-66540D02*
X83710Y-66540D01*
X83710Y-65611D01*
X83710Y-57771D01*
X83596Y-57495D01*
X83385Y-57284D01*
X83109Y-57170D01*
X82811Y-57169D01*
X82535Y-57283D01*
X82324Y-57494D01*
X82210Y-57770D01*
X82209Y-58068D01*
X82323Y-58344D01*
X82534Y-58555D01*
X82810Y-58669D01*
X83108Y-58670D01*
X83384Y-58556D01*
X83595Y-58345D01*
X83709Y-58069D01*
X83710Y-57771D01*
X83710Y-65611D01*
X83596Y-65335D01*
X83385Y-65124D01*
X83260Y-65072D01*
X83260Y-60840D01*
X83260Y-59940D01*
X83237Y-59825D01*
X83172Y-59727D01*
X83172Y-59727D01*
X83012Y-59567D01*
X82914Y-59502D01*
X82904Y-59500D01*
X82846Y-59443D01*
X82754Y-59405D01*
X82655Y-59404D01*
X82205Y-59404D01*
X82205Y-59405D01*
X82205Y-58965D01*
X82205Y-58415D01*
X82167Y-58323D01*
X82096Y-58253D01*
X82004Y-58215D01*
X81905Y-58214D01*
X81355Y-58214D01*
X81263Y-58252D01*
X81193Y-58323D01*
X81155Y-58415D01*
X81154Y-58502D01*
X81140Y-58467D01*
X81047Y-58442D01*
X80977Y-58513D01*
X80977Y-58372D01*
X80952Y-58279D01*
X80755Y-58210D01*
X80547Y-58221D01*
X80407Y-58279D01*
X80382Y-58372D01*
X80680Y-58669D01*
X80977Y-58372D01*
X80977Y-58513D01*
X80750Y-58740D01*
X81047Y-59037D01*
X81140Y-59012D01*
X81154Y-58971D01*
X81154Y-59064D01*
X81192Y-59156D01*
X81263Y-59226D01*
X81355Y-59264D01*
X81454Y-59265D01*
X82004Y-59265D01*
X82096Y-59227D01*
X82166Y-59156D01*
X82204Y-59064D01*
X82205Y-58965D01*
X82205Y-59405D01*
X82113Y-59442D01*
X82043Y-59513D01*
X82005Y-59605D01*
X82004Y-59704D01*
X82004Y-59954D01*
X82042Y-60046D01*
X82076Y-60079D01*
X82076Y-60080D01*
X81759Y-60080D01*
X81759Y-60066D01*
X81759Y-59972D01*
X81696Y-59910D01*
X81504Y-59910D01*
X81504Y-59810D01*
X81696Y-59810D01*
X81759Y-59747D01*
X81759Y-59653D01*
X81758Y-59554D01*
X81720Y-59462D01*
X81650Y-59391D01*
X81558Y-59353D01*
X81542Y-59354D01*
X81479Y-59416D01*
X81479Y-59495D01*
X81466Y-59462D01*
X81420Y-59416D01*
X81420Y-59416D01*
X81358Y-59354D01*
X81341Y-59353D01*
X81322Y-59361D01*
X81303Y-59354D01*
X81204Y-59353D01*
X81086Y-59353D01*
X81067Y-59361D01*
X81048Y-59354D01*
X80977Y-59353D01*
X80977Y-59107D01*
X80680Y-58810D01*
X80609Y-58881D01*
X80609Y-58740D01*
X80312Y-58442D01*
X80219Y-58467D01*
X80183Y-58570D01*
X80140Y-58467D01*
X80047Y-58442D01*
X79977Y-58513D01*
X79977Y-58372D01*
X79952Y-58279D01*
X79755Y-58210D01*
X79547Y-58221D01*
X79407Y-58279D01*
X79382Y-58372D01*
X79680Y-58669D01*
X79977Y-58372D01*
X79977Y-58513D01*
X79750Y-58740D01*
X80047Y-59037D01*
X80140Y-59012D01*
X80176Y-58909D01*
X80219Y-59012D01*
X80312Y-59037D01*
X80609Y-58740D01*
X80609Y-58881D01*
X80382Y-59107D01*
X80407Y-59200D01*
X80604Y-59269D01*
X80812Y-59258D01*
X80952Y-59200D01*
X80977Y-59107D01*
X80977Y-59353D01*
X80949Y-59353D01*
X80831Y-59353D01*
X80810Y-59362D01*
X80788Y-59354D01*
X80689Y-59353D01*
X80571Y-59353D01*
X80555Y-59360D01*
X80538Y-59354D01*
X80439Y-59353D01*
X80321Y-59353D01*
X80300Y-59362D01*
X80278Y-59354D01*
X80179Y-59353D01*
X80061Y-59353D01*
X80045Y-59360D01*
X80028Y-59354D01*
X79977Y-59353D01*
X79977Y-59107D01*
X79680Y-58810D01*
X79609Y-58881D01*
X79609Y-58740D01*
X79312Y-58442D01*
X79219Y-58467D01*
X79183Y-58570D01*
X79140Y-58467D01*
X79047Y-58442D01*
X78977Y-58513D01*
X78977Y-58372D01*
X78952Y-58279D01*
X78755Y-58210D01*
X78547Y-58221D01*
X78407Y-58279D01*
X78382Y-58372D01*
X78680Y-58669D01*
X78977Y-58372D01*
X78977Y-58513D01*
X78750Y-58740D01*
X79047Y-59037D01*
X79140Y-59012D01*
X79176Y-58909D01*
X79219Y-59012D01*
X79312Y-59037D01*
X79609Y-58740D01*
X79609Y-58881D01*
X79382Y-59107D01*
X79407Y-59200D01*
X79604Y-59269D01*
X79812Y-59258D01*
X79952Y-59200D01*
X79977Y-59107D01*
X79977Y-59353D01*
X79929Y-59353D01*
X79811Y-59353D01*
X79719Y-59391D01*
X79649Y-59462D01*
X79611Y-59554D01*
X79610Y-59653D01*
X79610Y-59744D01*
X79007Y-60347D01*
X78977Y-60393D01*
X78977Y-59107D01*
X78680Y-58810D01*
X78609Y-58881D01*
X78609Y-58740D01*
X78312Y-58442D01*
X78219Y-58467D01*
X78183Y-58570D01*
X78140Y-58467D01*
X78047Y-58442D01*
X77977Y-58513D01*
X77977Y-58372D01*
X77952Y-58279D01*
X77755Y-58210D01*
X77547Y-58221D01*
X77407Y-58279D01*
X77382Y-58372D01*
X77680Y-58669D01*
X77977Y-58372D01*
X77977Y-58513D01*
X77750Y-58740D01*
X78047Y-59037D01*
X78140Y-59012D01*
X78176Y-58909D01*
X78219Y-59012D01*
X78312Y-59037D01*
X78609Y-58740D01*
X78609Y-58881D01*
X78382Y-59107D01*
X78407Y-59200D01*
X78604Y-59269D01*
X78812Y-59258D01*
X78952Y-59200D01*
X78977Y-59107D01*
X78977Y-60393D01*
X78942Y-60445D01*
X78920Y-60560D01*
X78920Y-60975D01*
X78853Y-61002D01*
X78830Y-61026D01*
X78806Y-61003D01*
X78714Y-60965D01*
X78615Y-60964D01*
X78165Y-60964D01*
X78073Y-61002D01*
X78003Y-61073D01*
X77977Y-61136D01*
X77977Y-59107D01*
X77680Y-58810D01*
X77609Y-58881D01*
X77609Y-58740D01*
X77312Y-58442D01*
X77219Y-58467D01*
X77183Y-58570D01*
X77140Y-58467D01*
X77047Y-58442D01*
X76977Y-58513D01*
X76977Y-58372D01*
X76952Y-58279D01*
X76755Y-58210D01*
X76547Y-58221D01*
X76407Y-58279D01*
X76382Y-58372D01*
X76680Y-58669D01*
X76977Y-58372D01*
X76977Y-58513D01*
X76750Y-58740D01*
X77047Y-59037D01*
X77140Y-59012D01*
X77176Y-58909D01*
X77219Y-59012D01*
X77312Y-59037D01*
X77609Y-58740D01*
X77609Y-58881D01*
X77382Y-59107D01*
X77407Y-59200D01*
X77604Y-59269D01*
X77812Y-59258D01*
X77952Y-59200D01*
X77977Y-59107D01*
X77977Y-61136D01*
X77965Y-61165D01*
X77964Y-61264D01*
X77964Y-61514D01*
X78002Y-61606D01*
X78036Y-61640D01*
X78002Y-61673D01*
X77964Y-61765D01*
X77965Y-61827D01*
X78027Y-61890D01*
X78390Y-61890D01*
X78390Y-61882D01*
X78490Y-61882D01*
X78490Y-61890D01*
X78497Y-61890D01*
X78497Y-61990D01*
X78490Y-61990D01*
X78490Y-62252D01*
X78552Y-62315D01*
X78615Y-62315D01*
X78714Y-62314D01*
X78806Y-62276D01*
X78830Y-62253D01*
X78853Y-62276D01*
X78945Y-62314D01*
X79044Y-62315D01*
X79243Y-62315D01*
X79199Y-62358D01*
X79135Y-62515D01*
X79134Y-62684D01*
X79199Y-62840D01*
X79318Y-62960D01*
X79475Y-63024D01*
X79644Y-63025D01*
X79800Y-62960D01*
X79920Y-62841D01*
X79944Y-62781D01*
X79944Y-62824D01*
X79944Y-63074D01*
X79982Y-63166D01*
X80016Y-63199D01*
X79983Y-63233D01*
X79945Y-63325D01*
X79944Y-63424D01*
X79944Y-63674D01*
X79982Y-63766D01*
X80053Y-63836D01*
X80145Y-63874D01*
X80244Y-63875D01*
X80417Y-63875D01*
X80407Y-63879D01*
X80382Y-63972D01*
X80680Y-64269D01*
X80977Y-63972D01*
X80952Y-63879D01*
X80940Y-63875D01*
X80984Y-63875D01*
X81241Y-63875D01*
X81193Y-63923D01*
X81155Y-64015D01*
X81154Y-64102D01*
X81140Y-64067D01*
X81047Y-64042D01*
X80750Y-64340D01*
X81047Y-64637D01*
X81140Y-64612D01*
X81154Y-64571D01*
X81154Y-64664D01*
X81192Y-64756D01*
X81263Y-64826D01*
X81355Y-64864D01*
X81454Y-64865D01*
X82004Y-64865D01*
X82096Y-64827D01*
X82166Y-64756D01*
X82204Y-64664D01*
X82205Y-64565D01*
X82205Y-64015D01*
X82167Y-63923D01*
X82118Y-63875D01*
X82174Y-63875D01*
X82266Y-63837D01*
X82303Y-63800D01*
X82480Y-63800D01*
X82480Y-63799D01*
X82594Y-63777D01*
X82594Y-63777D01*
X82692Y-63712D01*
X82792Y-63612D01*
X82792Y-63612D01*
X82857Y-63514D01*
X82879Y-63400D01*
X82880Y-63400D01*
X82880Y-62580D01*
X82857Y-62465D01*
X82792Y-62367D01*
X82792Y-62367D01*
X82624Y-62200D01*
X82625Y-62115D01*
X82560Y-61959D01*
X82500Y-61898D01*
X82500Y-61724D01*
X83172Y-61052D01*
X83172Y-61052D01*
X83237Y-60954D01*
X83259Y-60840D01*
X83260Y-60840D01*
X83260Y-65072D01*
X83109Y-65010D01*
X82811Y-65009D01*
X82535Y-65123D01*
X82324Y-65334D01*
X82210Y-65610D01*
X82209Y-65908D01*
X82323Y-66184D01*
X82534Y-66395D01*
X82810Y-66509D01*
X83108Y-66510D01*
X83384Y-66396D01*
X83595Y-66185D01*
X83709Y-65909D01*
X83710Y-65611D01*
X83710Y-66540D01*
X81705Y-66540D01*
X81705Y-65836D01*
X81625Y-65643D01*
X81477Y-65495D01*
X81284Y-65415D01*
X81076Y-65414D01*
X80977Y-65455D01*
X80977Y-64707D01*
X80680Y-64410D01*
X80609Y-64481D01*
X80609Y-64340D01*
X80312Y-64042D01*
X80219Y-64067D01*
X80183Y-64170D01*
X80140Y-64067D01*
X80047Y-64042D01*
X79977Y-64113D01*
X79977Y-63972D01*
X79952Y-63879D01*
X79755Y-63810D01*
X79547Y-63821D01*
X79407Y-63879D01*
X79382Y-63972D01*
X79680Y-64269D01*
X79977Y-63972D01*
X79977Y-64113D01*
X79750Y-64340D01*
X80047Y-64637D01*
X80140Y-64612D01*
X80176Y-64509D01*
X80219Y-64612D01*
X80312Y-64637D01*
X80609Y-64340D01*
X80609Y-64481D01*
X80382Y-64707D01*
X80407Y-64800D01*
X80604Y-64869D01*
X80812Y-64858D01*
X80952Y-64800D01*
X80977Y-64707D01*
X80977Y-65455D01*
X80883Y-65494D01*
X80735Y-65642D01*
X80682Y-65768D01*
X80640Y-65667D01*
X80547Y-65642D01*
X80477Y-65713D01*
X80477Y-65572D01*
X80452Y-65479D01*
X80255Y-65410D01*
X80047Y-65421D01*
X79977Y-65450D01*
X79977Y-64707D01*
X79680Y-64410D01*
X79609Y-64481D01*
X79609Y-64340D01*
X79312Y-64042D01*
X79219Y-64067D01*
X79183Y-64170D01*
X79140Y-64067D01*
X79047Y-64042D01*
X78977Y-64113D01*
X78977Y-63972D01*
X78952Y-63879D01*
X78755Y-63810D01*
X78547Y-63821D01*
X78407Y-63879D01*
X78390Y-63945D01*
X78390Y-62252D01*
X78390Y-61990D01*
X78027Y-61990D01*
X77965Y-62052D01*
X77964Y-62114D01*
X78002Y-62206D01*
X78073Y-62276D01*
X78165Y-62314D01*
X78264Y-62315D01*
X78327Y-62315D01*
X78390Y-62252D01*
X78390Y-63945D01*
X78382Y-63972D01*
X78680Y-64269D01*
X78977Y-63972D01*
X78977Y-64113D01*
X78750Y-64340D01*
X79047Y-64637D01*
X79140Y-64612D01*
X79176Y-64509D01*
X79219Y-64612D01*
X79312Y-64637D01*
X79609Y-64340D01*
X79609Y-64481D01*
X79382Y-64707D01*
X79407Y-64800D01*
X79604Y-64869D01*
X79812Y-64858D01*
X79952Y-64800D01*
X79977Y-64707D01*
X79977Y-65450D01*
X79907Y-65479D01*
X79882Y-65572D01*
X80180Y-65869D01*
X80477Y-65572D01*
X80477Y-65713D01*
X80250Y-65940D01*
X80547Y-66237D01*
X80640Y-66212D01*
X80679Y-66102D01*
X80734Y-66237D01*
X80882Y-66384D01*
X81075Y-66464D01*
X81283Y-66465D01*
X81477Y-66385D01*
X81624Y-66237D01*
X81704Y-66044D01*
X81705Y-65836D01*
X81705Y-66540D01*
X80477Y-66540D01*
X80477Y-66307D01*
X80180Y-66010D01*
X80109Y-66081D01*
X80109Y-65940D01*
X79812Y-65642D01*
X79719Y-65667D01*
X79650Y-65864D01*
X79661Y-66072D01*
X79719Y-66212D01*
X79812Y-66237D01*
X80109Y-65940D01*
X80109Y-66081D01*
X79882Y-66307D01*
X79907Y-66400D01*
X80104Y-66469D01*
X80312Y-66458D01*
X80452Y-66400D01*
X80477Y-66307D01*
X80477Y-66540D01*
X78977Y-66540D01*
X78977Y-64707D01*
X78680Y-64410D01*
X78609Y-64481D01*
X78609Y-64340D01*
X78312Y-64042D01*
X78219Y-64067D01*
X78183Y-64170D01*
X78140Y-64067D01*
X78047Y-64042D01*
X77977Y-64113D01*
X77977Y-63972D01*
X77952Y-63879D01*
X77755Y-63810D01*
X77547Y-63821D01*
X77407Y-63879D01*
X77382Y-63972D01*
X77680Y-64269D01*
X77977Y-63972D01*
X77977Y-64113D01*
X77750Y-64340D01*
X78047Y-64637D01*
X78140Y-64612D01*
X78176Y-64509D01*
X78219Y-64612D01*
X78312Y-64637D01*
X78609Y-64340D01*
X78609Y-64481D01*
X78382Y-64707D01*
X78407Y-64800D01*
X78604Y-64869D01*
X78812Y-64858D01*
X78952Y-64800D01*
X78977Y-64707D01*
X78977Y-66540D01*
X77977Y-66540D01*
X77977Y-64707D01*
X77680Y-64410D01*
X77609Y-64481D01*
X77609Y-64340D01*
X77312Y-64042D01*
X77219Y-64067D01*
X77183Y-64170D01*
X77140Y-64067D01*
X77047Y-64042D01*
X76977Y-64113D01*
X76977Y-63972D01*
X76977Y-59107D01*
X76680Y-58810D01*
X76609Y-58881D01*
X76609Y-58740D01*
X76312Y-58442D01*
X76219Y-58467D01*
X76150Y-58664D01*
X76161Y-58872D01*
X76219Y-59012D01*
X76312Y-59037D01*
X76609Y-58740D01*
X76609Y-58881D01*
X76382Y-59107D01*
X76407Y-59200D01*
X76604Y-59269D01*
X76812Y-59258D01*
X76952Y-59200D01*
X76977Y-59107D01*
X76977Y-63972D01*
X76973Y-63959D01*
X76973Y-60629D01*
X76965Y-60331D01*
X76866Y-60091D01*
X76750Y-60040D01*
X76679Y-60110D01*
X76679Y-59969D01*
X76628Y-59853D01*
X76349Y-59746D01*
X76051Y-59754D01*
X75811Y-59853D01*
X75760Y-59969D01*
X76220Y-60429D01*
X76679Y-59969D01*
X76679Y-60110D01*
X76290Y-60500D01*
X76750Y-60959D01*
X76866Y-60908D01*
X76973Y-60629D01*
X76973Y-63959D01*
X76952Y-63879D01*
X76755Y-63810D01*
X76547Y-63821D01*
X76407Y-63879D01*
X76382Y-63972D01*
X76680Y-64269D01*
X76977Y-63972D01*
X76977Y-64113D01*
X76750Y-64340D01*
X77047Y-64637D01*
X77140Y-64612D01*
X77176Y-64509D01*
X77219Y-64612D01*
X77312Y-64637D01*
X77609Y-64340D01*
X77609Y-64481D01*
X77382Y-64707D01*
X77407Y-64800D01*
X77604Y-64869D01*
X77812Y-64858D01*
X77952Y-64800D01*
X77977Y-64707D01*
X77977Y-66540D01*
X77949Y-66540D01*
X77949Y-65955D01*
X77938Y-65747D01*
X77880Y-65607D01*
X77787Y-65582D01*
X77717Y-65653D01*
X77717Y-65512D01*
X77692Y-65419D01*
X77495Y-65350D01*
X77287Y-65361D01*
X77147Y-65419D01*
X77122Y-65512D01*
X77420Y-65809D01*
X77717Y-65512D01*
X77717Y-65653D01*
X77490Y-65880D01*
X77787Y-66177D01*
X77880Y-66152D01*
X77949Y-65955D01*
X77949Y-66540D01*
X77717Y-66540D01*
X77717Y-66247D01*
X77420Y-65950D01*
X77349Y-66021D01*
X77349Y-65880D01*
X77052Y-65582D01*
X76977Y-65602D01*
X76977Y-64707D01*
X76680Y-64410D01*
X76609Y-64481D01*
X76609Y-64340D01*
X76312Y-64042D01*
X76219Y-64067D01*
X76150Y-64264D01*
X76161Y-64472D01*
X76219Y-64612D01*
X76312Y-64637D01*
X76609Y-64340D01*
X76609Y-64481D01*
X76382Y-64707D01*
X76407Y-64800D01*
X76604Y-64869D01*
X76812Y-64858D01*
X76952Y-64800D01*
X76977Y-64707D01*
X76977Y-65602D01*
X76959Y-65607D01*
X76923Y-65710D01*
X76880Y-65607D01*
X76787Y-65582D01*
X76717Y-65653D01*
X76717Y-65512D01*
X76692Y-65419D01*
X76495Y-65350D01*
X76287Y-65361D01*
X76147Y-65419D01*
X76122Y-65512D01*
X76420Y-65809D01*
X76717Y-65512D01*
X76717Y-65653D01*
X76490Y-65880D01*
X76787Y-66177D01*
X76880Y-66152D01*
X76916Y-66049D01*
X76959Y-66152D01*
X77052Y-66177D01*
X77349Y-65880D01*
X77349Y-66021D01*
X77122Y-66247D01*
X77147Y-66340D01*
X77344Y-66409D01*
X77552Y-66398D01*
X77692Y-66340D01*
X77717Y-66247D01*
X77717Y-66540D01*
X76717Y-66540D01*
X76717Y-66247D01*
X76420Y-65950D01*
X76349Y-66021D01*
X76349Y-65880D01*
X76052Y-65582D01*
X75959Y-65607D01*
X75890Y-65804D01*
X75901Y-66012D01*
X75959Y-66152D01*
X76052Y-66177D01*
X76349Y-65880D01*
X76349Y-66021D01*
X76122Y-66247D01*
X76147Y-66340D01*
X76344Y-66409D01*
X76552Y-66398D01*
X76692Y-66340D01*
X76717Y-66247D01*
X76717Y-66540D01*
X75559Y-66540D01*
X75559Y-62765D01*
X75583Y-62824D01*
X75794Y-63035D01*
X76070Y-63149D01*
X76368Y-63150D01*
X76644Y-63036D01*
X76855Y-62825D01*
X76969Y-62549D01*
X76970Y-62251D01*
X76856Y-61975D01*
X76679Y-61799D01*
X76679Y-61030D01*
X76220Y-60570D01*
X75760Y-61030D01*
X75811Y-61146D01*
X76090Y-61253D01*
X76388Y-61245D01*
X76628Y-61146D01*
X76679Y-61030D01*
X76679Y-61799D01*
X76645Y-61764D01*
X76369Y-61650D01*
X76071Y-61649D01*
X75795Y-61763D01*
X75584Y-61974D01*
X75559Y-62034D01*
X75559Y-60874D01*
X75573Y-60908D01*
X75689Y-60959D01*
X76149Y-60500D01*
X75689Y-60040D01*
X75573Y-60091D01*
X75559Y-60127D01*
X75559Y-57099D01*
X85000Y-57099D01*
X85000Y-66540D01*
M02*
