G04 (created by PCBNEW (2013-07-07 BZR 4022)-stable) date 2/2/2014 1:41:28 AM*
%MOIN*%
G04 Gerber Fmt 3.4, Leading zero omitted, Abs format*
%FSLAX34Y34*%
G01*
G70*
G90*
G04 APERTURE LIST*
%ADD10C,0.00590551*%
%ADD11R,0.045X0.025*%
%ADD12C,0.055*%
%ADD13C,0.1*%
%ADD14R,0.12X0.12*%
%ADD15R,0.12X0.25*%
%ADD16R,0.055X0.055*%
%ADD17C,0.035*%
%ADD18C,0.01*%
G04 APERTURE END LIST*
G54D10*
G54D11*
X82760Y-62600D03*
X82760Y-63200D03*
X82680Y-59540D03*
X82680Y-58940D03*
X82600Y-60540D03*
X82600Y-61140D03*
X79720Y-61260D03*
X79720Y-60660D03*
G54D12*
X81180Y-65940D03*
X80180Y-65940D03*
G54D13*
X82960Y-57920D03*
X82960Y-65760D03*
G54D14*
X84320Y-59770D03*
G54D15*
X84320Y-61740D03*
G54D14*
X84320Y-63710D03*
G54D13*
X76220Y-60500D03*
X76220Y-62400D03*
G54D16*
X81680Y-64340D03*
G54D12*
X80680Y-64340D03*
X79680Y-64340D03*
X78680Y-64340D03*
X77680Y-64340D03*
X76680Y-64340D03*
G54D16*
X81680Y-58740D03*
G54D12*
X80680Y-58740D03*
X79680Y-58740D03*
X78680Y-58740D03*
X77680Y-58740D03*
X76680Y-58740D03*
X76420Y-65880D03*
X77420Y-65880D03*
G54D17*
X83300Y-61720D03*
X78680Y-60700D03*
X82200Y-62200D03*
X80680Y-60760D03*
X79560Y-62600D03*
G54D18*
X84320Y-61740D02*
X83320Y-61740D01*
X83320Y-61740D02*
X83300Y-61720D01*
X79720Y-60660D02*
X78720Y-60660D01*
X78720Y-60660D02*
X78680Y-60700D01*
X82760Y-63200D02*
X83810Y-63200D01*
X83810Y-63200D02*
X84320Y-63710D01*
X82960Y-65760D02*
X81360Y-65760D01*
X81360Y-65760D02*
X81180Y-65940D01*
X81680Y-64340D02*
X81680Y-64480D01*
X81680Y-64480D02*
X82960Y-65760D01*
X83570Y-63710D02*
X82310Y-63710D01*
X82310Y-63710D02*
X81680Y-64340D01*
X83570Y-63710D02*
X84320Y-63710D01*
X82600Y-61140D02*
X82920Y-61140D01*
X83060Y-59920D02*
X82680Y-59540D01*
X83060Y-61000D02*
X83060Y-59920D01*
X82920Y-61140D02*
X83060Y-61000D01*
X82760Y-62600D02*
X82760Y-61300D01*
X82760Y-61300D02*
X82600Y-61140D01*
X82600Y-62600D02*
X82760Y-62600D01*
X82200Y-62200D02*
X82600Y-62600D01*
X81680Y-58740D02*
X82140Y-58740D01*
X82140Y-58740D02*
X82960Y-57920D01*
X82680Y-58940D02*
X81880Y-58940D01*
X81880Y-58940D02*
X81680Y-58740D01*
X82960Y-57920D02*
X82960Y-58410D01*
X82960Y-58410D02*
X84320Y-59770D01*
X80900Y-60540D02*
X82600Y-60540D01*
X80680Y-60760D02*
X80900Y-60540D01*
G54D10*
G36*
X85000Y-66540D02*
X77945Y-66540D01*
X77945Y-65776D01*
X77865Y-65583D01*
X77717Y-65435D01*
X77524Y-65355D01*
X77316Y-65354D01*
X77123Y-65434D01*
X76975Y-65582D01*
X76919Y-65715D01*
X76865Y-65583D01*
X76717Y-65435D01*
X76524Y-65355D01*
X76316Y-65354D01*
X76123Y-65434D01*
X75975Y-65582D01*
X75895Y-65775D01*
X75894Y-65983D01*
X75974Y-66177D01*
X76122Y-66324D01*
X76315Y-66404D01*
X76523Y-66405D01*
X76717Y-66325D01*
X76864Y-66177D01*
X76920Y-66044D01*
X76974Y-66177D01*
X77122Y-66324D01*
X77315Y-66404D01*
X77523Y-66405D01*
X77717Y-66325D01*
X77864Y-66177D01*
X77944Y-65984D01*
X77945Y-65776D01*
X77945Y-66540D01*
X75559Y-66540D01*
X75559Y-62774D01*
X75573Y-62808D01*
X75689Y-62859D01*
X76149Y-62400D01*
X75689Y-61940D01*
X75573Y-61991D01*
X75559Y-62027D01*
X75559Y-60865D01*
X75583Y-60924D01*
X75794Y-61135D01*
X76070Y-61249D01*
X76368Y-61250D01*
X76644Y-61136D01*
X76855Y-60925D01*
X76969Y-60649D01*
X76970Y-60351D01*
X76856Y-60075D01*
X76645Y-59864D01*
X76369Y-59750D01*
X76071Y-59749D01*
X75795Y-59863D01*
X75584Y-60074D01*
X75559Y-60134D01*
X75559Y-57099D01*
X85000Y-57099D01*
X85000Y-58932D01*
X84969Y-58920D01*
X84870Y-58919D01*
X83894Y-58919D01*
X83457Y-58483D01*
X83595Y-58345D01*
X83709Y-58069D01*
X83710Y-57771D01*
X83596Y-57495D01*
X83385Y-57284D01*
X83109Y-57170D01*
X82811Y-57169D01*
X82535Y-57283D01*
X82324Y-57494D01*
X82210Y-57770D01*
X82209Y-58068D01*
X82261Y-58194D01*
X82149Y-58306D01*
X82096Y-58253D01*
X82004Y-58215D01*
X81905Y-58214D01*
X81355Y-58214D01*
X81263Y-58252D01*
X81193Y-58323D01*
X81155Y-58415D01*
X81154Y-58514D01*
X81154Y-58514D01*
X81125Y-58443D01*
X80977Y-58295D01*
X80784Y-58215D01*
X80576Y-58214D01*
X80383Y-58294D01*
X80235Y-58442D01*
X80179Y-58575D01*
X80125Y-58443D01*
X79977Y-58295D01*
X79784Y-58215D01*
X79576Y-58214D01*
X79383Y-58294D01*
X79235Y-58442D01*
X79179Y-58575D01*
X79125Y-58443D01*
X78977Y-58295D01*
X78784Y-58215D01*
X78576Y-58214D01*
X78383Y-58294D01*
X78235Y-58442D01*
X78179Y-58575D01*
X78125Y-58443D01*
X77977Y-58295D01*
X77784Y-58215D01*
X77576Y-58214D01*
X77383Y-58294D01*
X77235Y-58442D01*
X77179Y-58575D01*
X77125Y-58443D01*
X76977Y-58295D01*
X76784Y-58215D01*
X76576Y-58214D01*
X76383Y-58294D01*
X76235Y-58442D01*
X76155Y-58635D01*
X76154Y-58843D01*
X76234Y-59037D01*
X76382Y-59184D01*
X76575Y-59264D01*
X76783Y-59265D01*
X76977Y-59185D01*
X77124Y-59037D01*
X77180Y-58904D01*
X77234Y-59037D01*
X77382Y-59184D01*
X77575Y-59264D01*
X77783Y-59265D01*
X77977Y-59185D01*
X78124Y-59037D01*
X78180Y-58904D01*
X78234Y-59037D01*
X78382Y-59184D01*
X78575Y-59264D01*
X78783Y-59265D01*
X78977Y-59185D01*
X79124Y-59037D01*
X79180Y-58904D01*
X79234Y-59037D01*
X79382Y-59184D01*
X79575Y-59264D01*
X79783Y-59265D01*
X79977Y-59185D01*
X80124Y-59037D01*
X80180Y-58904D01*
X80234Y-59037D01*
X80382Y-59184D01*
X80575Y-59264D01*
X80783Y-59265D01*
X80977Y-59185D01*
X81124Y-59037D01*
X81154Y-58965D01*
X81154Y-59064D01*
X81192Y-59156D01*
X81263Y-59226D01*
X81355Y-59264D01*
X81454Y-59265D01*
X82004Y-59265D01*
X82065Y-59240D01*
X82276Y-59240D01*
X82243Y-59273D01*
X82205Y-59365D01*
X82204Y-59464D01*
X82204Y-59714D01*
X82242Y-59806D01*
X82313Y-59876D01*
X82405Y-59914D01*
X82504Y-59915D01*
X82630Y-59915D01*
X82760Y-60044D01*
X82760Y-60164D01*
X82325Y-60164D01*
X82233Y-60202D01*
X82196Y-60240D01*
X80900Y-60240D01*
X80785Y-60262D01*
X80687Y-60327D01*
X80680Y-60335D01*
X80595Y-60334D01*
X80439Y-60399D01*
X80319Y-60518D01*
X80255Y-60675D01*
X80254Y-60844D01*
X80319Y-61000D01*
X80438Y-61120D01*
X80595Y-61184D01*
X80764Y-61185D01*
X80920Y-61120D01*
X81040Y-61001D01*
X81104Y-60844D01*
X81104Y-60840D01*
X82196Y-60840D01*
X82163Y-60873D01*
X82125Y-60965D01*
X82124Y-61064D01*
X82124Y-61314D01*
X82162Y-61406D01*
X82233Y-61476D01*
X82325Y-61514D01*
X82424Y-61515D01*
X82460Y-61515D01*
X82460Y-61858D01*
X82441Y-61839D01*
X82284Y-61775D01*
X82115Y-61774D01*
X81959Y-61839D01*
X81839Y-61958D01*
X81775Y-62115D01*
X81774Y-62284D01*
X81839Y-62440D01*
X81958Y-62560D01*
X82115Y-62624D01*
X82200Y-62625D01*
X82284Y-62709D01*
X82284Y-62774D01*
X82322Y-62866D01*
X82356Y-62899D01*
X82323Y-62933D01*
X82285Y-63025D01*
X82284Y-63124D01*
X82284Y-63374D01*
X82300Y-63411D01*
X82195Y-63432D01*
X82097Y-63497D01*
X81780Y-63814D01*
X81355Y-63814D01*
X81263Y-63852D01*
X81193Y-63923D01*
X81155Y-64015D01*
X81154Y-64114D01*
X81154Y-64114D01*
X81125Y-64043D01*
X80977Y-63895D01*
X80784Y-63815D01*
X80576Y-63814D01*
X80383Y-63894D01*
X80235Y-64042D01*
X80195Y-64138D01*
X80195Y-61434D01*
X80195Y-61085D01*
X80157Y-60993D01*
X80123Y-60960D01*
X80156Y-60926D01*
X80194Y-60834D01*
X80195Y-60735D01*
X80195Y-60485D01*
X80157Y-60393D01*
X80086Y-60323D01*
X79994Y-60285D01*
X79895Y-60284D01*
X79445Y-60284D01*
X79353Y-60322D01*
X79316Y-60360D01*
X78941Y-60360D01*
X78921Y-60339D01*
X78764Y-60275D01*
X78595Y-60274D01*
X78439Y-60339D01*
X78319Y-60458D01*
X78255Y-60615D01*
X78254Y-60784D01*
X78319Y-60940D01*
X78438Y-61060D01*
X78595Y-61124D01*
X78764Y-61125D01*
X78920Y-61060D01*
X79021Y-60960D01*
X79316Y-60960D01*
X79282Y-60993D01*
X79244Y-61085D01*
X79245Y-61147D01*
X79307Y-61210D01*
X79670Y-61210D01*
X79670Y-61202D01*
X79770Y-61202D01*
X79770Y-61210D01*
X80132Y-61210D01*
X80195Y-61147D01*
X80195Y-61085D01*
X80195Y-61434D01*
X80195Y-61372D01*
X80132Y-61310D01*
X79770Y-61310D01*
X79770Y-61572D01*
X79832Y-61635D01*
X79895Y-61635D01*
X79994Y-61634D01*
X80086Y-61596D01*
X80157Y-61526D01*
X80195Y-61434D01*
X80195Y-64138D01*
X80179Y-64175D01*
X80125Y-64043D01*
X79977Y-63895D01*
X79784Y-63815D01*
X79670Y-63814D01*
X79670Y-61572D01*
X79670Y-61310D01*
X79307Y-61310D01*
X79245Y-61372D01*
X79244Y-61434D01*
X79282Y-61526D01*
X79353Y-61596D01*
X79445Y-61634D01*
X79544Y-61635D01*
X79607Y-61635D01*
X79670Y-61572D01*
X79670Y-63814D01*
X79576Y-63814D01*
X79383Y-63894D01*
X79235Y-64042D01*
X79179Y-64175D01*
X79125Y-64043D01*
X78977Y-63895D01*
X78784Y-63815D01*
X78576Y-63814D01*
X78383Y-63894D01*
X78235Y-64042D01*
X78179Y-64175D01*
X78125Y-64043D01*
X77977Y-63895D01*
X77784Y-63815D01*
X77576Y-63814D01*
X77383Y-63894D01*
X77235Y-64042D01*
X77179Y-64175D01*
X77125Y-64043D01*
X76977Y-63895D01*
X76973Y-63893D01*
X76973Y-62529D01*
X76965Y-62231D01*
X76866Y-61991D01*
X76750Y-61940D01*
X76679Y-62010D01*
X76679Y-61869D01*
X76628Y-61753D01*
X76349Y-61646D01*
X76051Y-61654D01*
X75811Y-61753D01*
X75760Y-61869D01*
X76220Y-62329D01*
X76679Y-61869D01*
X76679Y-62010D01*
X76290Y-62400D01*
X76750Y-62859D01*
X76866Y-62808D01*
X76973Y-62529D01*
X76973Y-63893D01*
X76784Y-63815D01*
X76679Y-63815D01*
X76679Y-62930D01*
X76220Y-62470D01*
X75760Y-62930D01*
X75811Y-63046D01*
X76090Y-63153D01*
X76388Y-63145D01*
X76628Y-63046D01*
X76679Y-62930D01*
X76679Y-63815D01*
X76576Y-63814D01*
X76383Y-63894D01*
X76235Y-64042D01*
X76155Y-64235D01*
X76154Y-64443D01*
X76234Y-64637D01*
X76382Y-64784D01*
X76575Y-64864D01*
X76783Y-64865D01*
X76977Y-64785D01*
X77124Y-64637D01*
X77180Y-64504D01*
X77234Y-64637D01*
X77382Y-64784D01*
X77575Y-64864D01*
X77783Y-64865D01*
X77977Y-64785D01*
X78124Y-64637D01*
X78180Y-64504D01*
X78234Y-64637D01*
X78382Y-64784D01*
X78575Y-64864D01*
X78783Y-64865D01*
X78977Y-64785D01*
X79124Y-64637D01*
X79180Y-64504D01*
X79234Y-64637D01*
X79382Y-64784D01*
X79575Y-64864D01*
X79783Y-64865D01*
X79977Y-64785D01*
X80124Y-64637D01*
X80180Y-64504D01*
X80234Y-64637D01*
X80382Y-64784D01*
X80575Y-64864D01*
X80783Y-64865D01*
X80977Y-64785D01*
X81124Y-64637D01*
X81154Y-64565D01*
X81154Y-64664D01*
X81192Y-64756D01*
X81263Y-64826D01*
X81355Y-64864D01*
X81454Y-64865D01*
X81640Y-64865D01*
X82235Y-65460D01*
X81393Y-65460D01*
X81284Y-65415D01*
X81076Y-65414D01*
X80883Y-65494D01*
X80735Y-65642D01*
X80679Y-65775D01*
X80625Y-65643D01*
X80477Y-65495D01*
X80284Y-65415D01*
X80076Y-65414D01*
X79883Y-65494D01*
X79735Y-65642D01*
X79655Y-65835D01*
X79654Y-66043D01*
X79734Y-66237D01*
X79882Y-66384D01*
X80075Y-66464D01*
X80283Y-66465D01*
X80477Y-66385D01*
X80624Y-66237D01*
X80680Y-66104D01*
X80734Y-66237D01*
X80882Y-66384D01*
X81075Y-66464D01*
X81283Y-66465D01*
X81477Y-66385D01*
X81624Y-66237D01*
X81698Y-66060D01*
X82272Y-66060D01*
X82323Y-66184D01*
X82534Y-66395D01*
X82810Y-66509D01*
X83108Y-66510D01*
X83384Y-66396D01*
X83595Y-66185D01*
X83709Y-65909D01*
X83710Y-65611D01*
X83596Y-65335D01*
X83385Y-65124D01*
X83109Y-65010D01*
X82811Y-65009D01*
X82685Y-65061D01*
X82205Y-64580D01*
X82205Y-64565D01*
X82205Y-64239D01*
X82434Y-64010D01*
X83469Y-64010D01*
X83469Y-64359D01*
X83507Y-64451D01*
X83578Y-64521D01*
X83670Y-64559D01*
X83769Y-64560D01*
X84969Y-64560D01*
X85000Y-64547D01*
X85000Y-66540D01*
X85000Y-66540D01*
G37*
G54D18*
X85000Y-66540D02*
X77945Y-66540D01*
X77945Y-65776D01*
X77865Y-65583D01*
X77717Y-65435D01*
X77524Y-65355D01*
X77316Y-65354D01*
X77123Y-65434D01*
X76975Y-65582D01*
X76919Y-65715D01*
X76865Y-65583D01*
X76717Y-65435D01*
X76524Y-65355D01*
X76316Y-65354D01*
X76123Y-65434D01*
X75975Y-65582D01*
X75895Y-65775D01*
X75894Y-65983D01*
X75974Y-66177D01*
X76122Y-66324D01*
X76315Y-66404D01*
X76523Y-66405D01*
X76717Y-66325D01*
X76864Y-66177D01*
X76920Y-66044D01*
X76974Y-66177D01*
X77122Y-66324D01*
X77315Y-66404D01*
X77523Y-66405D01*
X77717Y-66325D01*
X77864Y-66177D01*
X77944Y-65984D01*
X77945Y-65776D01*
X77945Y-66540D01*
X75559Y-66540D01*
X75559Y-62774D01*
X75573Y-62808D01*
X75689Y-62859D01*
X76149Y-62400D01*
X75689Y-61940D01*
X75573Y-61991D01*
X75559Y-62027D01*
X75559Y-60865D01*
X75583Y-60924D01*
X75794Y-61135D01*
X76070Y-61249D01*
X76368Y-61250D01*
X76644Y-61136D01*
X76855Y-60925D01*
X76969Y-60649D01*
X76970Y-60351D01*
X76856Y-60075D01*
X76645Y-59864D01*
X76369Y-59750D01*
X76071Y-59749D01*
X75795Y-59863D01*
X75584Y-60074D01*
X75559Y-60134D01*
X75559Y-57099D01*
X85000Y-57099D01*
X85000Y-58932D01*
X84969Y-58920D01*
X84870Y-58919D01*
X83894Y-58919D01*
X83457Y-58483D01*
X83595Y-58345D01*
X83709Y-58069D01*
X83710Y-57771D01*
X83596Y-57495D01*
X83385Y-57284D01*
X83109Y-57170D01*
X82811Y-57169D01*
X82535Y-57283D01*
X82324Y-57494D01*
X82210Y-57770D01*
X82209Y-58068D01*
X82261Y-58194D01*
X82149Y-58306D01*
X82096Y-58253D01*
X82004Y-58215D01*
X81905Y-58214D01*
X81355Y-58214D01*
X81263Y-58252D01*
X81193Y-58323D01*
X81155Y-58415D01*
X81154Y-58514D01*
X81154Y-58514D01*
X81125Y-58443D01*
X80977Y-58295D01*
X80784Y-58215D01*
X80576Y-58214D01*
X80383Y-58294D01*
X80235Y-58442D01*
X80179Y-58575D01*
X80125Y-58443D01*
X79977Y-58295D01*
X79784Y-58215D01*
X79576Y-58214D01*
X79383Y-58294D01*
X79235Y-58442D01*
X79179Y-58575D01*
X79125Y-58443D01*
X78977Y-58295D01*
X78784Y-58215D01*
X78576Y-58214D01*
X78383Y-58294D01*
X78235Y-58442D01*
X78179Y-58575D01*
X78125Y-58443D01*
X77977Y-58295D01*
X77784Y-58215D01*
X77576Y-58214D01*
X77383Y-58294D01*
X77235Y-58442D01*
X77179Y-58575D01*
X77125Y-58443D01*
X76977Y-58295D01*
X76784Y-58215D01*
X76576Y-58214D01*
X76383Y-58294D01*
X76235Y-58442D01*
X76155Y-58635D01*
X76154Y-58843D01*
X76234Y-59037D01*
X76382Y-59184D01*
X76575Y-59264D01*
X76783Y-59265D01*
X76977Y-59185D01*
X77124Y-59037D01*
X77180Y-58904D01*
X77234Y-59037D01*
X77382Y-59184D01*
X77575Y-59264D01*
X77783Y-59265D01*
X77977Y-59185D01*
X78124Y-59037D01*
X78180Y-58904D01*
X78234Y-59037D01*
X78382Y-59184D01*
X78575Y-59264D01*
X78783Y-59265D01*
X78977Y-59185D01*
X79124Y-59037D01*
X79180Y-58904D01*
X79234Y-59037D01*
X79382Y-59184D01*
X79575Y-59264D01*
X79783Y-59265D01*
X79977Y-59185D01*
X80124Y-59037D01*
X80180Y-58904D01*
X80234Y-59037D01*
X80382Y-59184D01*
X80575Y-59264D01*
X80783Y-59265D01*
X80977Y-59185D01*
X81124Y-59037D01*
X81154Y-58965D01*
X81154Y-59064D01*
X81192Y-59156D01*
X81263Y-59226D01*
X81355Y-59264D01*
X81454Y-59265D01*
X82004Y-59265D01*
X82065Y-59240D01*
X82276Y-59240D01*
X82243Y-59273D01*
X82205Y-59365D01*
X82204Y-59464D01*
X82204Y-59714D01*
X82242Y-59806D01*
X82313Y-59876D01*
X82405Y-59914D01*
X82504Y-59915D01*
X82630Y-59915D01*
X82760Y-60044D01*
X82760Y-60164D01*
X82325Y-60164D01*
X82233Y-60202D01*
X82196Y-60240D01*
X80900Y-60240D01*
X80785Y-60262D01*
X80687Y-60327D01*
X80680Y-60335D01*
X80595Y-60334D01*
X80439Y-60399D01*
X80319Y-60518D01*
X80255Y-60675D01*
X80254Y-60844D01*
X80319Y-61000D01*
X80438Y-61120D01*
X80595Y-61184D01*
X80764Y-61185D01*
X80920Y-61120D01*
X81040Y-61001D01*
X81104Y-60844D01*
X81104Y-60840D01*
X82196Y-60840D01*
X82163Y-60873D01*
X82125Y-60965D01*
X82124Y-61064D01*
X82124Y-61314D01*
X82162Y-61406D01*
X82233Y-61476D01*
X82325Y-61514D01*
X82424Y-61515D01*
X82460Y-61515D01*
X82460Y-61858D01*
X82441Y-61839D01*
X82284Y-61775D01*
X82115Y-61774D01*
X81959Y-61839D01*
X81839Y-61958D01*
X81775Y-62115D01*
X81774Y-62284D01*
X81839Y-62440D01*
X81958Y-62560D01*
X82115Y-62624D01*
X82200Y-62625D01*
X82284Y-62709D01*
X82284Y-62774D01*
X82322Y-62866D01*
X82356Y-62899D01*
X82323Y-62933D01*
X82285Y-63025D01*
X82284Y-63124D01*
X82284Y-63374D01*
X82300Y-63411D01*
X82195Y-63432D01*
X82097Y-63497D01*
X81780Y-63814D01*
X81355Y-63814D01*
X81263Y-63852D01*
X81193Y-63923D01*
X81155Y-64015D01*
X81154Y-64114D01*
X81154Y-64114D01*
X81125Y-64043D01*
X80977Y-63895D01*
X80784Y-63815D01*
X80576Y-63814D01*
X80383Y-63894D01*
X80235Y-64042D01*
X80195Y-64138D01*
X80195Y-61434D01*
X80195Y-61085D01*
X80157Y-60993D01*
X80123Y-60960D01*
X80156Y-60926D01*
X80194Y-60834D01*
X80195Y-60735D01*
X80195Y-60485D01*
X80157Y-60393D01*
X80086Y-60323D01*
X79994Y-60285D01*
X79895Y-60284D01*
X79445Y-60284D01*
X79353Y-60322D01*
X79316Y-60360D01*
X78941Y-60360D01*
X78921Y-60339D01*
X78764Y-60275D01*
X78595Y-60274D01*
X78439Y-60339D01*
X78319Y-60458D01*
X78255Y-60615D01*
X78254Y-60784D01*
X78319Y-60940D01*
X78438Y-61060D01*
X78595Y-61124D01*
X78764Y-61125D01*
X78920Y-61060D01*
X79021Y-60960D01*
X79316Y-60960D01*
X79282Y-60993D01*
X79244Y-61085D01*
X79245Y-61147D01*
X79307Y-61210D01*
X79670Y-61210D01*
X79670Y-61202D01*
X79770Y-61202D01*
X79770Y-61210D01*
X80132Y-61210D01*
X80195Y-61147D01*
X80195Y-61085D01*
X80195Y-61434D01*
X80195Y-61372D01*
X80132Y-61310D01*
X79770Y-61310D01*
X79770Y-61572D01*
X79832Y-61635D01*
X79895Y-61635D01*
X79994Y-61634D01*
X80086Y-61596D01*
X80157Y-61526D01*
X80195Y-61434D01*
X80195Y-64138D01*
X80179Y-64175D01*
X80125Y-64043D01*
X79977Y-63895D01*
X79784Y-63815D01*
X79670Y-63814D01*
X79670Y-61572D01*
X79670Y-61310D01*
X79307Y-61310D01*
X79245Y-61372D01*
X79244Y-61434D01*
X79282Y-61526D01*
X79353Y-61596D01*
X79445Y-61634D01*
X79544Y-61635D01*
X79607Y-61635D01*
X79670Y-61572D01*
X79670Y-63814D01*
X79576Y-63814D01*
X79383Y-63894D01*
X79235Y-64042D01*
X79179Y-64175D01*
X79125Y-64043D01*
X78977Y-63895D01*
X78784Y-63815D01*
X78576Y-63814D01*
X78383Y-63894D01*
X78235Y-64042D01*
X78179Y-64175D01*
X78125Y-64043D01*
X77977Y-63895D01*
X77784Y-63815D01*
X77576Y-63814D01*
X77383Y-63894D01*
X77235Y-64042D01*
X77179Y-64175D01*
X77125Y-64043D01*
X76977Y-63895D01*
X76973Y-63893D01*
X76973Y-62529D01*
X76965Y-62231D01*
X76866Y-61991D01*
X76750Y-61940D01*
X76679Y-62010D01*
X76679Y-61869D01*
X76628Y-61753D01*
X76349Y-61646D01*
X76051Y-61654D01*
X75811Y-61753D01*
X75760Y-61869D01*
X76220Y-62329D01*
X76679Y-61869D01*
X76679Y-62010D01*
X76290Y-62400D01*
X76750Y-62859D01*
X76866Y-62808D01*
X76973Y-62529D01*
X76973Y-63893D01*
X76784Y-63815D01*
X76679Y-63815D01*
X76679Y-62930D01*
X76220Y-62470D01*
X75760Y-62930D01*
X75811Y-63046D01*
X76090Y-63153D01*
X76388Y-63145D01*
X76628Y-63046D01*
X76679Y-62930D01*
X76679Y-63815D01*
X76576Y-63814D01*
X76383Y-63894D01*
X76235Y-64042D01*
X76155Y-64235D01*
X76154Y-64443D01*
X76234Y-64637D01*
X76382Y-64784D01*
X76575Y-64864D01*
X76783Y-64865D01*
X76977Y-64785D01*
X77124Y-64637D01*
X77180Y-64504D01*
X77234Y-64637D01*
X77382Y-64784D01*
X77575Y-64864D01*
X77783Y-64865D01*
X77977Y-64785D01*
X78124Y-64637D01*
X78180Y-64504D01*
X78234Y-64637D01*
X78382Y-64784D01*
X78575Y-64864D01*
X78783Y-64865D01*
X78977Y-64785D01*
X79124Y-64637D01*
X79180Y-64504D01*
X79234Y-64637D01*
X79382Y-64784D01*
X79575Y-64864D01*
X79783Y-64865D01*
X79977Y-64785D01*
X80124Y-64637D01*
X80180Y-64504D01*
X80234Y-64637D01*
X80382Y-64784D01*
X80575Y-64864D01*
X80783Y-64865D01*
X80977Y-64785D01*
X81124Y-64637D01*
X81154Y-64565D01*
X81154Y-64664D01*
X81192Y-64756D01*
X81263Y-64826D01*
X81355Y-64864D01*
X81454Y-64865D01*
X81640Y-64865D01*
X82235Y-65460D01*
X81393Y-65460D01*
X81284Y-65415D01*
X81076Y-65414D01*
X80883Y-65494D01*
X80735Y-65642D01*
X80679Y-65775D01*
X80625Y-65643D01*
X80477Y-65495D01*
X80284Y-65415D01*
X80076Y-65414D01*
X79883Y-65494D01*
X79735Y-65642D01*
X79655Y-65835D01*
X79654Y-66043D01*
X79734Y-66237D01*
X79882Y-66384D01*
X80075Y-66464D01*
X80283Y-66465D01*
X80477Y-66385D01*
X80624Y-66237D01*
X80680Y-66104D01*
X80734Y-66237D01*
X80882Y-66384D01*
X81075Y-66464D01*
X81283Y-66465D01*
X81477Y-66385D01*
X81624Y-66237D01*
X81698Y-66060D01*
X82272Y-66060D01*
X82323Y-66184D01*
X82534Y-66395D01*
X82810Y-66509D01*
X83108Y-66510D01*
X83384Y-66396D01*
X83595Y-66185D01*
X83709Y-65909D01*
X83710Y-65611D01*
X83596Y-65335D01*
X83385Y-65124D01*
X83109Y-65010D01*
X82811Y-65009D01*
X82685Y-65061D01*
X82205Y-64580D01*
X82205Y-64565D01*
X82205Y-64239D01*
X82434Y-64010D01*
X83469Y-64010D01*
X83469Y-64359D01*
X83507Y-64451D01*
X83578Y-64521D01*
X83670Y-64559D01*
X83769Y-64560D01*
X84969Y-64560D01*
X85000Y-64547D01*
X85000Y-66540D01*
M02*
