M48
INCH,TZ
T1C0.025
T2C0.032
T3C0.059
%
G90
G05
T1
X78680Y-60700
X79560Y-62600
X80680Y-60760
X82200Y-62200
X83300Y-61720
T2
X76420Y-65880
X76680Y-58740
X76680Y-64340
X77420Y-65880
X77680Y-58740
X77680Y-64340
X78680Y-58740
X78680Y-64340
X79680Y-58740
X79680Y-64340
X80180Y-65940
X80680Y-58740
X80680Y-64340
X81180Y-65940
X81680Y-58740
X81680Y-64340
T3
X76220Y-60500
X76220Y-62400
X82960Y-57920
X82960Y-65760
T0
M30
