G04 (created by PCBNEW (2013-07-07 BZR 4022)-stable) date 2/2/2014 1:41:28 AM*
%MOIN*%
G04 Gerber Fmt 3.4, Leading zero omitted, Abs format*
%FSLAX34Y34*%
G01*
G70*
G90*
G04 APERTURE LIST*
%ADD10C,0.00590551*%
%ADD11C,0.00984252*%
%ADD12C,0.008*%
%ADD13C,0.005*%
%ADD14C,0.00625*%
%ADD15C,0.0063*%
%ADD16C,0.0045*%
G04 APERTURE END LIST*
G54D10*
G54D11*
X83479Y-59174D02*
X83479Y-58986D01*
X83085Y-58986D01*
X83273Y-59305D02*
X83273Y-59605D01*
X83385Y-59605D02*
X83385Y-59305D01*
X83479Y-59998D02*
X83479Y-59774D01*
X83479Y-59886D02*
X83085Y-59886D01*
X83141Y-59848D01*
X83179Y-59811D01*
X83198Y-59774D01*
X83066Y-60448D02*
X83573Y-60111D01*
X83629Y-60692D02*
X83610Y-60673D01*
X83554Y-60636D01*
X83516Y-60617D01*
X83460Y-60598D01*
X83366Y-60580D01*
X83291Y-60580D01*
X83198Y-60598D01*
X83141Y-60617D01*
X83104Y-60636D01*
X83048Y-60673D01*
X83029Y-60692D01*
X83441Y-61067D02*
X83460Y-61048D01*
X83479Y-60992D01*
X83479Y-60955D01*
X83460Y-60898D01*
X83423Y-60861D01*
X83385Y-60842D01*
X83310Y-60823D01*
X83254Y-60823D01*
X83179Y-60842D01*
X83141Y-60861D01*
X83104Y-60898D01*
X83085Y-60955D01*
X83085Y-60992D01*
X83104Y-61048D01*
X83123Y-61067D01*
X83479Y-61198D02*
X83216Y-61405D01*
X83216Y-61198D02*
X83479Y-61405D01*
X83629Y-61667D02*
X83610Y-61648D01*
X83554Y-61611D01*
X83516Y-61592D01*
X83460Y-61573D01*
X83366Y-61555D01*
X83291Y-61555D01*
X83198Y-61573D01*
X83141Y-61592D01*
X83104Y-61611D01*
X83048Y-61648D01*
X83029Y-61667D01*
X83123Y-61798D02*
X83104Y-61817D01*
X83085Y-61854D01*
X83085Y-61948D01*
X83104Y-61986D01*
X83123Y-62004D01*
X83160Y-62023D01*
X83198Y-62023D01*
X83254Y-62004D01*
X83479Y-61780D01*
X83479Y-62023D01*
X83479Y-62154D02*
X83216Y-62361D01*
X83216Y-62154D02*
X83479Y-62361D01*
X83479Y-62511D02*
X83085Y-62511D01*
X83085Y-62661D01*
X83104Y-62698D01*
X83123Y-62717D01*
X83160Y-62736D01*
X83216Y-62736D01*
X83254Y-62717D01*
X83273Y-62698D01*
X83291Y-62661D01*
X83291Y-62511D01*
X83479Y-62904D02*
X83216Y-62904D01*
X83085Y-62904D02*
X83104Y-62886D01*
X83123Y-62904D01*
X83104Y-62923D01*
X83085Y-62904D01*
X83123Y-62904D01*
X83479Y-63054D02*
X83216Y-63261D01*
X83216Y-63054D02*
X83479Y-63261D01*
X83216Y-63354D02*
X83216Y-63504D01*
X83479Y-63411D02*
X83141Y-63411D01*
X83104Y-63429D01*
X83085Y-63467D01*
X83085Y-63504D01*
X83629Y-63598D02*
X83610Y-63617D01*
X83554Y-63654D01*
X83516Y-63673D01*
X83460Y-63692D01*
X83366Y-63711D01*
X83291Y-63711D01*
X83198Y-63692D01*
X83141Y-63673D01*
X83104Y-63654D01*
X83048Y-63617D01*
X83029Y-63598D01*
X83123Y-63842D02*
X83066Y-63917D01*
X83123Y-63992D01*
X83123Y-64104D02*
X83104Y-64123D01*
X83085Y-64160D01*
X83085Y-64254D01*
X83104Y-64292D01*
X83123Y-64310D01*
X83160Y-64329D01*
X83198Y-64329D01*
X83254Y-64310D01*
X83479Y-64085D01*
X83479Y-64329D01*
X83629Y-64460D02*
X83610Y-64479D01*
X83554Y-64517D01*
X83516Y-64535D01*
X83460Y-64554D01*
X83366Y-64573D01*
X83291Y-64573D01*
X83198Y-64554D01*
X83141Y-64535D01*
X83104Y-64517D01*
X83048Y-64479D01*
X83029Y-64460D01*
X84361Y-59225D02*
X84380Y-59206D01*
X84399Y-59150D01*
X84399Y-59112D01*
X84380Y-59056D01*
X84343Y-59019D01*
X84305Y-59000D01*
X84230Y-58981D01*
X84174Y-58981D01*
X84099Y-59000D01*
X84061Y-59019D01*
X84024Y-59056D01*
X84005Y-59112D01*
X84005Y-59150D01*
X84024Y-59206D01*
X84043Y-59225D01*
X84193Y-59394D02*
X84193Y-59694D01*
X84305Y-59694D02*
X84305Y-59394D01*
X84136Y-59825D02*
X84136Y-59975D01*
X84005Y-59881D02*
X84343Y-59881D01*
X84380Y-59900D01*
X84399Y-59937D01*
X84399Y-59975D01*
X83986Y-60387D02*
X84493Y-60050D01*
X84399Y-60743D02*
X84211Y-60612D01*
X84399Y-60518D02*
X84005Y-60518D01*
X84005Y-60668D01*
X84024Y-60706D01*
X84043Y-60725D01*
X84080Y-60743D01*
X84136Y-60743D01*
X84174Y-60725D01*
X84193Y-60706D01*
X84211Y-60668D01*
X84211Y-60518D01*
X84549Y-61325D02*
X84530Y-61306D01*
X84474Y-61268D01*
X84436Y-61250D01*
X84380Y-61231D01*
X84286Y-61212D01*
X84211Y-61212D01*
X84118Y-61231D01*
X84061Y-61250D01*
X84024Y-61268D01*
X83968Y-61306D01*
X83949Y-61325D01*
X84136Y-61418D02*
X84136Y-61568D01*
X84005Y-61475D02*
X84343Y-61475D01*
X84380Y-61493D01*
X84399Y-61531D01*
X84399Y-61568D01*
X84193Y-61700D02*
X84193Y-62000D01*
X84305Y-62000D02*
X84305Y-61700D01*
X84005Y-62356D02*
X84005Y-62281D01*
X84024Y-62243D01*
X84043Y-62225D01*
X84099Y-62187D01*
X84174Y-62168D01*
X84324Y-62168D01*
X84361Y-62187D01*
X84380Y-62206D01*
X84399Y-62243D01*
X84399Y-62318D01*
X84380Y-62356D01*
X84361Y-62374D01*
X84324Y-62393D01*
X84230Y-62393D01*
X84193Y-62374D01*
X84174Y-62356D01*
X84155Y-62318D01*
X84155Y-62243D01*
X84174Y-62206D01*
X84193Y-62187D01*
X84230Y-62168D01*
X84005Y-62524D02*
X84005Y-62768D01*
X84155Y-62637D01*
X84155Y-62693D01*
X84174Y-62731D01*
X84193Y-62749D01*
X84230Y-62768D01*
X84324Y-62768D01*
X84361Y-62749D01*
X84380Y-62731D01*
X84399Y-62693D01*
X84399Y-62581D01*
X84380Y-62543D01*
X84361Y-62524D01*
X84399Y-62918D02*
X84005Y-63218D01*
X84005Y-62974D02*
X84024Y-63012D01*
X84061Y-63031D01*
X84099Y-63012D01*
X84118Y-62974D01*
X84099Y-62937D01*
X84061Y-62918D01*
X84024Y-62937D01*
X84005Y-62974D01*
X84380Y-63199D02*
X84343Y-63218D01*
X84305Y-63199D01*
X84286Y-63162D01*
X84305Y-63124D01*
X84343Y-63106D01*
X84380Y-63124D01*
X84399Y-63162D01*
X84380Y-63199D01*
X84380Y-63406D02*
X84399Y-63406D01*
X84436Y-63387D01*
X84455Y-63368D01*
X84399Y-64099D02*
X84211Y-63968D01*
X84399Y-63874D02*
X84005Y-63874D01*
X84005Y-64024D01*
X84024Y-64062D01*
X84043Y-64081D01*
X84080Y-64099D01*
X84136Y-64099D01*
X84174Y-64081D01*
X84193Y-64062D01*
X84211Y-64024D01*
X84211Y-63874D01*
X84193Y-64268D02*
X84193Y-64568D01*
X84305Y-64568D02*
X84305Y-64268D01*
X84399Y-64962D02*
X84399Y-64737D01*
X84399Y-64849D02*
X84005Y-64849D01*
X84061Y-64812D01*
X84099Y-64774D01*
X84118Y-64737D01*
X84399Y-65130D02*
X84005Y-65130D01*
X84399Y-65355D02*
X84174Y-65187D01*
X84005Y-65355D02*
X84230Y-65130D01*
X84549Y-65487D02*
X84530Y-65505D01*
X84474Y-65543D01*
X84436Y-65562D01*
X84380Y-65580D01*
X84286Y-65599D01*
X84211Y-65599D01*
X84118Y-65580D01*
X84061Y-65562D01*
X84024Y-65543D01*
X83968Y-65505D01*
X83949Y-65487D01*
G54D12*
X79730Y-61660D02*
X81630Y-61660D01*
X81630Y-61660D02*
X81630Y-60260D01*
X81630Y-60260D02*
X79730Y-60260D01*
X79730Y-60260D02*
X79730Y-61660D01*
X80130Y-60510D02*
G75*
G03X80130Y-60510I-150J0D01*
G74*
G01*
G54D13*
X78190Y-61190D02*
X78190Y-62090D01*
X78190Y-62090D02*
X78690Y-62090D01*
X78690Y-62090D02*
X78690Y-61190D01*
X78690Y-61190D02*
X78190Y-61190D01*
X78970Y-61190D02*
X78970Y-62090D01*
X78970Y-62090D02*
X79470Y-62090D01*
X79470Y-62090D02*
X79470Y-61190D01*
X79470Y-61190D02*
X78970Y-61190D01*
X80170Y-62750D02*
X80170Y-63650D01*
X80170Y-63650D02*
X80670Y-63650D01*
X80670Y-63650D02*
X80670Y-62750D01*
X80670Y-62750D02*
X80170Y-62750D01*
X80910Y-62750D02*
X80910Y-63650D01*
X80910Y-63650D02*
X81410Y-63650D01*
X81410Y-63650D02*
X81410Y-62750D01*
X81410Y-62750D02*
X80910Y-62750D01*
X81650Y-62750D02*
X81650Y-63650D01*
X81650Y-63650D02*
X82150Y-63650D01*
X82150Y-63650D02*
X82150Y-62750D01*
X82150Y-62750D02*
X81650Y-62750D01*
X82730Y-60530D02*
X82730Y-59630D01*
X82730Y-59630D02*
X82230Y-59630D01*
X82230Y-59630D02*
X82230Y-60530D01*
X82230Y-60530D02*
X82730Y-60530D01*
G54D14*
X82070Y-61741D02*
X82070Y-61984D01*
X82058Y-62012D01*
X82046Y-62027D01*
X82022Y-62041D01*
X81975Y-62041D01*
X81951Y-62027D01*
X81939Y-62012D01*
X81927Y-61984D01*
X81927Y-61741D01*
X81677Y-62041D02*
X81820Y-62041D01*
X81749Y-62041D02*
X81749Y-61741D01*
X81772Y-61784D01*
X81796Y-61812D01*
X81820Y-61827D01*
G54D15*
X81487Y-61061D02*
X81287Y-61061D01*
X81415Y-61361D01*
X81044Y-61161D02*
X81044Y-61361D01*
X81115Y-61047D02*
X81187Y-61261D01*
X81001Y-61261D01*
X80901Y-61275D02*
X80758Y-61275D01*
X80930Y-61361D02*
X80830Y-61061D01*
X80730Y-61361D01*
X80458Y-61332D02*
X80472Y-61347D01*
X80515Y-61361D01*
X80544Y-61361D01*
X80587Y-61347D01*
X80615Y-61318D01*
X80629Y-61290D01*
X80644Y-61232D01*
X80644Y-61190D01*
X80629Y-61132D01*
X80615Y-61104D01*
X80587Y-61075D01*
X80544Y-61061D01*
X80515Y-61061D01*
X80472Y-61075D01*
X80458Y-61090D01*
X80172Y-61361D02*
X80344Y-61361D01*
X80258Y-61361D02*
X80258Y-61061D01*
X80287Y-61104D01*
X80315Y-61132D01*
X80344Y-61147D01*
X79915Y-61161D02*
X79915Y-61361D01*
X79987Y-61047D02*
X80058Y-61261D01*
X79872Y-61261D01*
G54D16*
X78501Y-60890D02*
X78511Y-60881D01*
X78520Y-60855D01*
X78520Y-60838D01*
X78511Y-60812D01*
X78492Y-60795D01*
X78473Y-60787D01*
X78435Y-60778D01*
X78406Y-60778D01*
X78368Y-60787D01*
X78349Y-60795D01*
X78330Y-60812D01*
X78320Y-60838D01*
X78320Y-60855D01*
X78330Y-60881D01*
X78340Y-60890D01*
X78520Y-61061D02*
X78520Y-60958D01*
X78520Y-61010D02*
X78320Y-61010D01*
X78349Y-60992D01*
X78368Y-60975D01*
X78378Y-60958D01*
X79280Y-60910D02*
X79185Y-60850D01*
X79280Y-60807D02*
X79080Y-60807D01*
X79080Y-60875D01*
X79090Y-60892D01*
X79100Y-60901D01*
X79119Y-60910D01*
X79147Y-60910D01*
X79166Y-60901D01*
X79176Y-60892D01*
X79185Y-60875D01*
X79185Y-60807D01*
X79280Y-61081D02*
X79280Y-60978D01*
X79280Y-61030D02*
X79080Y-61030D01*
X79109Y-61012D01*
X79128Y-60995D01*
X79138Y-60978D01*
X80040Y-63170D02*
X79945Y-63110D01*
X80040Y-63067D02*
X79840Y-63067D01*
X79840Y-63135D01*
X79850Y-63152D01*
X79860Y-63161D01*
X79879Y-63170D01*
X79907Y-63170D01*
X79926Y-63161D01*
X79936Y-63152D01*
X79945Y-63135D01*
X79945Y-63067D01*
X79840Y-63324D02*
X79840Y-63290D01*
X79850Y-63272D01*
X79860Y-63264D01*
X79888Y-63247D01*
X79926Y-63238D01*
X80002Y-63238D01*
X80021Y-63247D01*
X80031Y-63255D01*
X80040Y-63272D01*
X80040Y-63307D01*
X80031Y-63324D01*
X80021Y-63332D01*
X80002Y-63341D01*
X79955Y-63341D01*
X79936Y-63332D01*
X79926Y-63324D01*
X79917Y-63307D01*
X79917Y-63272D01*
X79926Y-63255D01*
X79936Y-63247D01*
X79955Y-63238D01*
X81260Y-63850D02*
X81165Y-63790D01*
X81260Y-63747D02*
X81060Y-63747D01*
X81060Y-63815D01*
X81070Y-63832D01*
X81080Y-63841D01*
X81099Y-63850D01*
X81127Y-63850D01*
X81146Y-63841D01*
X81156Y-63832D01*
X81165Y-63815D01*
X81165Y-63747D01*
X81060Y-64012D02*
X81060Y-63927D01*
X81156Y-63918D01*
X81146Y-63927D01*
X81137Y-63944D01*
X81137Y-63987D01*
X81146Y-64004D01*
X81156Y-64012D01*
X81175Y-64021D01*
X81222Y-64021D01*
X81241Y-64012D01*
X81251Y-64004D01*
X81260Y-63987D01*
X81260Y-63944D01*
X81251Y-63927D01*
X81241Y-63918D01*
X82440Y-63170D02*
X82345Y-63110D01*
X82440Y-63067D02*
X82240Y-63067D01*
X82240Y-63135D01*
X82250Y-63152D01*
X82260Y-63161D01*
X82279Y-63170D01*
X82307Y-63170D01*
X82326Y-63161D01*
X82336Y-63152D01*
X82345Y-63135D01*
X82345Y-63067D01*
X82307Y-63324D02*
X82440Y-63324D01*
X82231Y-63281D02*
X82374Y-63238D01*
X82374Y-63350D01*
X82100Y-60050D02*
X82005Y-59990D01*
X82100Y-59947D02*
X81900Y-59947D01*
X81900Y-60015D01*
X81910Y-60032D01*
X81920Y-60041D01*
X81939Y-60050D01*
X81967Y-60050D01*
X81986Y-60041D01*
X81996Y-60032D01*
X82005Y-60015D01*
X82005Y-59947D01*
X81900Y-60110D02*
X81900Y-60221D01*
X81977Y-60161D01*
X81977Y-60187D01*
X81986Y-60204D01*
X81996Y-60212D01*
X82015Y-60221D01*
X82062Y-60221D01*
X82081Y-60212D01*
X82091Y-60204D01*
X82100Y-60187D01*
X82100Y-60135D01*
X82091Y-60118D01*
X82081Y-60110D01*
M02*
