M48
INCH,TZ
T1C0.020
T2C0.025
T3C0.032
T4C0.059
%
G90
G05
T1
X75040Y-57140
X75040Y-57526
X75040Y-57920
X75040Y-58314
X75040Y-58706
X75040Y-59100
X75040Y-59494
X75040Y-59886
X75040Y-60280
X75040Y-60674
X75040Y-61066
X75040Y-61460
X75040Y-61854
X75040Y-62246
X75040Y-62640
X75040Y-63034
X75040Y-63426
X75040Y-63820
X75040Y-64214
X75040Y-64606
X75040Y-65000
X75040Y-65394
X75040Y-65786
X75040Y-66180
X75040Y-66574
T2
X78680Y-60700
X79560Y-62600
X80680Y-60760
X82200Y-62200
X83300Y-61720
T3
X76420Y-65880
X76680Y-58740
X76680Y-64340
X77420Y-65880
X77680Y-58740
X77680Y-64340
X78680Y-58740
X78680Y-64340
X79680Y-58740
X79680Y-64340
X80180Y-65940
X80680Y-58740
X80680Y-64340
X81180Y-65940
X81680Y-58740
X81680Y-64340
T4
X76220Y-60500
X76220Y-62400
X82960Y-57920
X82960Y-65760
T0
M30
