M48
INCH,TZ
T1C0.020
%
G90
G05
T1
X075040Y-057466
X075040Y-057860
X075040Y-058254
X075040Y-058666
X075040Y-059060
X075040Y-059454
X075040Y-059846
X075040Y-060240
X075040Y-060634
X075040Y-061026
X075040Y-061420
X075040Y-061814
X075040Y-062206
X075040Y-062600
X075040Y-062994
X075040Y-063386
X075040Y-063780
X075040Y-064174
X075040Y-064566
X075040Y-064960
X075040Y-065354
X075040Y-065780
X075040Y-066200
T0
M30
