G04 (created by PCBNEW (2013-07-07 BZR 4022)-stable) date 1/31/2014 1:18:34 AM*
%MOIN*%
G04 Gerber Fmt 3.4, Leading zero omitted, Abs format*
%FSLAX34Y34*%
G01*
G70*
G90*
G04 APERTURE LIST*
%ADD10C,0.00590551*%
%ADD11C,0.005*%
%ADD12C,0.00984252*%
%ADD13C,0.00787402*%
%ADD14C,0.012*%
%ADD15C,0.0039*%
%ADD16C,0.0028*%
%ADD17C,0.00314961*%
%ADD18C,0.008*%
%ADD19C,0.0031*%
%ADD20C,0.0045*%
%ADD21C,0.006*%
G04 APERTURE END LIST*
G54D10*
G54D11*
X66692Y-66551D02*
X66720Y-66560D01*
X66768Y-66560D01*
X66787Y-66551D01*
X66797Y-66541D01*
X66806Y-66522D01*
X66806Y-66503D01*
X66797Y-66484D01*
X66787Y-66475D01*
X66768Y-66465D01*
X66730Y-66456D01*
X66711Y-66446D01*
X66701Y-66437D01*
X66692Y-66418D01*
X66692Y-66399D01*
X66701Y-66380D01*
X66711Y-66370D01*
X66730Y-66360D01*
X66778Y-66360D01*
X66806Y-66370D01*
X66930Y-66360D02*
X66968Y-66360D01*
X66987Y-66370D01*
X67006Y-66389D01*
X67016Y-66427D01*
X67016Y-66494D01*
X67006Y-66532D01*
X66987Y-66551D01*
X66968Y-66560D01*
X66930Y-66560D01*
X66911Y-66551D01*
X66892Y-66532D01*
X66882Y-66494D01*
X66882Y-66427D01*
X66892Y-66389D01*
X66911Y-66370D01*
X66930Y-66360D01*
X67073Y-66360D02*
X67187Y-66360D01*
X67130Y-66560D02*
X67130Y-66360D01*
X67244Y-66380D02*
X67254Y-66370D01*
X67273Y-66360D01*
X67320Y-66360D01*
X67340Y-66370D01*
X67349Y-66380D01*
X67359Y-66399D01*
X67359Y-66418D01*
X67349Y-66446D01*
X67235Y-66560D01*
X67359Y-66560D01*
X67425Y-66360D02*
X67549Y-66360D01*
X67482Y-66437D01*
X67511Y-66437D01*
X67530Y-66446D01*
X67540Y-66456D01*
X67549Y-66475D01*
X67549Y-66522D01*
X67540Y-66541D01*
X67530Y-66551D01*
X67511Y-66560D01*
X67454Y-66560D01*
X67435Y-66551D01*
X67425Y-66541D01*
X67635Y-66484D02*
X67787Y-66484D01*
X67978Y-66360D02*
X67882Y-66360D01*
X67873Y-66456D01*
X67882Y-66446D01*
X67901Y-66437D01*
X67949Y-66437D01*
X67968Y-66446D01*
X67978Y-66456D01*
X67987Y-66475D01*
X67987Y-66522D01*
X67978Y-66541D01*
X67968Y-66551D01*
X67949Y-66560D01*
X67901Y-66560D01*
X67882Y-66551D01*
X67873Y-66541D01*
X69851Y-65311D02*
X69879Y-65320D01*
X69927Y-65320D01*
X69946Y-65311D01*
X69956Y-65301D01*
X69965Y-65282D01*
X69965Y-65263D01*
X69956Y-65244D01*
X69946Y-65235D01*
X69927Y-65225D01*
X69889Y-65216D01*
X69870Y-65206D01*
X69860Y-65197D01*
X69851Y-65178D01*
X69851Y-65159D01*
X69860Y-65140D01*
X69870Y-65130D01*
X69889Y-65120D01*
X69937Y-65120D01*
X69965Y-65130D01*
X70089Y-65120D02*
X70127Y-65120D01*
X70146Y-65130D01*
X70165Y-65149D01*
X70175Y-65187D01*
X70175Y-65254D01*
X70165Y-65292D01*
X70146Y-65311D01*
X70127Y-65320D01*
X70089Y-65320D01*
X70070Y-65311D01*
X70051Y-65292D01*
X70041Y-65254D01*
X70041Y-65187D01*
X70051Y-65149D01*
X70070Y-65130D01*
X70089Y-65120D01*
X70232Y-65120D02*
X70346Y-65120D01*
X70289Y-65320D02*
X70289Y-65120D01*
X70403Y-65140D02*
X70413Y-65130D01*
X70432Y-65120D01*
X70480Y-65120D01*
X70499Y-65130D01*
X70508Y-65140D01*
X70518Y-65159D01*
X70518Y-65178D01*
X70508Y-65206D01*
X70394Y-65320D01*
X70518Y-65320D01*
X70584Y-65120D02*
X70708Y-65120D01*
X70641Y-65197D01*
X70670Y-65197D01*
X70689Y-65206D01*
X70699Y-65216D01*
X70708Y-65235D01*
X70708Y-65282D01*
X70699Y-65301D01*
X70689Y-65311D01*
X70670Y-65320D01*
X70613Y-65320D01*
X70594Y-65311D01*
X70584Y-65301D01*
X71331Y-65331D02*
X71359Y-65340D01*
X71407Y-65340D01*
X71426Y-65331D01*
X71436Y-65321D01*
X71445Y-65302D01*
X71445Y-65283D01*
X71436Y-65264D01*
X71426Y-65255D01*
X71407Y-65245D01*
X71369Y-65236D01*
X71350Y-65226D01*
X71340Y-65217D01*
X71331Y-65198D01*
X71331Y-65179D01*
X71340Y-65160D01*
X71350Y-65150D01*
X71369Y-65140D01*
X71417Y-65140D01*
X71445Y-65150D01*
X71569Y-65140D02*
X71607Y-65140D01*
X71626Y-65150D01*
X71645Y-65169D01*
X71655Y-65207D01*
X71655Y-65274D01*
X71645Y-65312D01*
X71626Y-65331D01*
X71607Y-65340D01*
X71569Y-65340D01*
X71550Y-65331D01*
X71531Y-65312D01*
X71521Y-65274D01*
X71521Y-65207D01*
X71531Y-65169D01*
X71550Y-65150D01*
X71569Y-65140D01*
X71712Y-65140D02*
X71826Y-65140D01*
X71769Y-65340D02*
X71769Y-65140D01*
X71883Y-65160D02*
X71893Y-65150D01*
X71912Y-65140D01*
X71960Y-65140D01*
X71979Y-65150D01*
X71988Y-65160D01*
X71998Y-65179D01*
X71998Y-65198D01*
X71988Y-65226D01*
X71874Y-65340D01*
X71998Y-65340D01*
X72064Y-65140D02*
X72188Y-65140D01*
X72121Y-65217D01*
X72150Y-65217D01*
X72169Y-65226D01*
X72179Y-65236D01*
X72188Y-65255D01*
X72188Y-65302D01*
X72179Y-65321D01*
X72169Y-65331D01*
X72150Y-65340D01*
X72093Y-65340D01*
X72074Y-65331D01*
X72064Y-65321D01*
X72811Y-65311D02*
X72839Y-65320D01*
X72887Y-65320D01*
X72906Y-65311D01*
X72916Y-65301D01*
X72925Y-65282D01*
X72925Y-65263D01*
X72916Y-65244D01*
X72906Y-65235D01*
X72887Y-65225D01*
X72849Y-65216D01*
X72830Y-65206D01*
X72820Y-65197D01*
X72811Y-65178D01*
X72811Y-65159D01*
X72820Y-65140D01*
X72830Y-65130D01*
X72849Y-65120D01*
X72897Y-65120D01*
X72925Y-65130D01*
X73049Y-65120D02*
X73087Y-65120D01*
X73106Y-65130D01*
X73125Y-65149D01*
X73135Y-65187D01*
X73135Y-65254D01*
X73125Y-65292D01*
X73106Y-65311D01*
X73087Y-65320D01*
X73049Y-65320D01*
X73030Y-65311D01*
X73011Y-65292D01*
X73001Y-65254D01*
X73001Y-65187D01*
X73011Y-65149D01*
X73030Y-65130D01*
X73049Y-65120D01*
X73192Y-65120D02*
X73306Y-65120D01*
X73249Y-65320D02*
X73249Y-65120D01*
X73363Y-65140D02*
X73373Y-65130D01*
X73392Y-65120D01*
X73440Y-65120D01*
X73459Y-65130D01*
X73468Y-65140D01*
X73478Y-65159D01*
X73478Y-65178D01*
X73468Y-65206D01*
X73354Y-65320D01*
X73478Y-65320D01*
X73544Y-65120D02*
X73668Y-65120D01*
X73601Y-65197D01*
X73630Y-65197D01*
X73649Y-65206D01*
X73659Y-65216D01*
X73668Y-65235D01*
X73668Y-65282D01*
X73659Y-65301D01*
X73649Y-65311D01*
X73630Y-65320D01*
X73573Y-65320D01*
X73554Y-65311D01*
X73544Y-65301D01*
X66197Y-62980D02*
X66311Y-62980D01*
X66254Y-63180D02*
X66254Y-62980D01*
X66368Y-63171D02*
X66397Y-63180D01*
X66444Y-63180D01*
X66463Y-63171D01*
X66473Y-63161D01*
X66482Y-63142D01*
X66482Y-63123D01*
X66473Y-63104D01*
X66463Y-63095D01*
X66444Y-63085D01*
X66406Y-63076D01*
X66387Y-63066D01*
X66378Y-63057D01*
X66368Y-63038D01*
X66368Y-63019D01*
X66378Y-63000D01*
X66387Y-62990D01*
X66406Y-62980D01*
X66454Y-62980D01*
X66482Y-62990D01*
X66559Y-63171D02*
X66587Y-63180D01*
X66635Y-63180D01*
X66654Y-63171D01*
X66663Y-63161D01*
X66673Y-63142D01*
X66673Y-63123D01*
X66663Y-63104D01*
X66654Y-63095D01*
X66635Y-63085D01*
X66597Y-63076D01*
X66578Y-63066D01*
X66568Y-63057D01*
X66559Y-63038D01*
X66559Y-63019D01*
X66568Y-63000D01*
X66578Y-62990D01*
X66597Y-62980D01*
X66644Y-62980D01*
X66673Y-62990D01*
X66797Y-62980D02*
X66835Y-62980D01*
X66854Y-62990D01*
X66873Y-63009D01*
X66882Y-63047D01*
X66882Y-63114D01*
X66873Y-63152D01*
X66854Y-63171D01*
X66835Y-63180D01*
X66797Y-63180D01*
X66778Y-63171D01*
X66759Y-63152D01*
X66749Y-63114D01*
X66749Y-63047D01*
X66759Y-63009D01*
X66778Y-62990D01*
X66797Y-62980D01*
X66968Y-63180D02*
X66968Y-62980D01*
X67044Y-62980D01*
X67063Y-62990D01*
X67073Y-63000D01*
X67082Y-63019D01*
X67082Y-63047D01*
X67073Y-63066D01*
X67063Y-63076D01*
X67044Y-63085D01*
X66968Y-63085D01*
X67273Y-63180D02*
X67159Y-63180D01*
X67216Y-63180D02*
X67216Y-62980D01*
X67197Y-63009D01*
X67178Y-63028D01*
X67159Y-63038D01*
X67444Y-63047D02*
X67444Y-63180D01*
X67397Y-62971D02*
X67349Y-63114D01*
X67473Y-63114D01*
X68517Y-63000D02*
X68631Y-63000D01*
X68574Y-63200D02*
X68574Y-63000D01*
X68688Y-63191D02*
X68717Y-63200D01*
X68764Y-63200D01*
X68783Y-63191D01*
X68793Y-63181D01*
X68802Y-63162D01*
X68802Y-63143D01*
X68793Y-63124D01*
X68783Y-63115D01*
X68764Y-63105D01*
X68726Y-63096D01*
X68707Y-63086D01*
X68698Y-63077D01*
X68688Y-63058D01*
X68688Y-63039D01*
X68698Y-63020D01*
X68707Y-63010D01*
X68726Y-63000D01*
X68774Y-63000D01*
X68802Y-63010D01*
X68879Y-63191D02*
X68907Y-63200D01*
X68955Y-63200D01*
X68974Y-63191D01*
X68983Y-63181D01*
X68993Y-63162D01*
X68993Y-63143D01*
X68983Y-63124D01*
X68974Y-63115D01*
X68955Y-63105D01*
X68917Y-63096D01*
X68898Y-63086D01*
X68888Y-63077D01*
X68879Y-63058D01*
X68879Y-63039D01*
X68888Y-63020D01*
X68898Y-63010D01*
X68917Y-63000D01*
X68964Y-63000D01*
X68993Y-63010D01*
X69117Y-63000D02*
X69155Y-63000D01*
X69174Y-63010D01*
X69193Y-63029D01*
X69202Y-63067D01*
X69202Y-63134D01*
X69193Y-63172D01*
X69174Y-63191D01*
X69155Y-63200D01*
X69117Y-63200D01*
X69098Y-63191D01*
X69079Y-63172D01*
X69069Y-63134D01*
X69069Y-63067D01*
X69079Y-63029D01*
X69098Y-63010D01*
X69117Y-63000D01*
X69288Y-63200D02*
X69288Y-63000D01*
X69364Y-63000D01*
X69383Y-63010D01*
X69393Y-63020D01*
X69402Y-63039D01*
X69402Y-63067D01*
X69393Y-63086D01*
X69383Y-63096D01*
X69364Y-63105D01*
X69288Y-63105D01*
X69593Y-63200D02*
X69479Y-63200D01*
X69536Y-63200D02*
X69536Y-63000D01*
X69517Y-63029D01*
X69498Y-63048D01*
X69479Y-63058D01*
X69764Y-63067D02*
X69764Y-63200D01*
X69717Y-62991D02*
X69669Y-63134D01*
X69793Y-63134D01*
X70877Y-63020D02*
X70991Y-63020D01*
X70934Y-63220D02*
X70934Y-63020D01*
X71048Y-63211D02*
X71077Y-63220D01*
X71124Y-63220D01*
X71143Y-63211D01*
X71153Y-63201D01*
X71162Y-63182D01*
X71162Y-63163D01*
X71153Y-63144D01*
X71143Y-63135D01*
X71124Y-63125D01*
X71086Y-63116D01*
X71067Y-63106D01*
X71058Y-63097D01*
X71048Y-63078D01*
X71048Y-63059D01*
X71058Y-63040D01*
X71067Y-63030D01*
X71086Y-63020D01*
X71134Y-63020D01*
X71162Y-63030D01*
X71239Y-63211D02*
X71267Y-63220D01*
X71315Y-63220D01*
X71334Y-63211D01*
X71343Y-63201D01*
X71353Y-63182D01*
X71353Y-63163D01*
X71343Y-63144D01*
X71334Y-63135D01*
X71315Y-63125D01*
X71277Y-63116D01*
X71258Y-63106D01*
X71248Y-63097D01*
X71239Y-63078D01*
X71239Y-63059D01*
X71248Y-63040D01*
X71258Y-63030D01*
X71277Y-63020D01*
X71324Y-63020D01*
X71353Y-63030D01*
X71477Y-63020D02*
X71515Y-63020D01*
X71534Y-63030D01*
X71553Y-63049D01*
X71562Y-63087D01*
X71562Y-63154D01*
X71553Y-63192D01*
X71534Y-63211D01*
X71515Y-63220D01*
X71477Y-63220D01*
X71458Y-63211D01*
X71439Y-63192D01*
X71429Y-63154D01*
X71429Y-63087D01*
X71439Y-63049D01*
X71458Y-63030D01*
X71477Y-63020D01*
X71648Y-63220D02*
X71648Y-63020D01*
X71724Y-63020D01*
X71743Y-63030D01*
X71753Y-63040D01*
X71762Y-63059D01*
X71762Y-63087D01*
X71753Y-63106D01*
X71743Y-63116D01*
X71724Y-63125D01*
X71648Y-63125D01*
X71953Y-63220D02*
X71839Y-63220D01*
X71896Y-63220D02*
X71896Y-63020D01*
X71877Y-63049D01*
X71858Y-63068D01*
X71839Y-63078D01*
X72124Y-63087D02*
X72124Y-63220D01*
X72077Y-63011D02*
X72029Y-63154D01*
X72153Y-63154D01*
X73177Y-63040D02*
X73291Y-63040D01*
X73234Y-63240D02*
X73234Y-63040D01*
X73348Y-63231D02*
X73377Y-63240D01*
X73424Y-63240D01*
X73443Y-63231D01*
X73453Y-63221D01*
X73462Y-63202D01*
X73462Y-63183D01*
X73453Y-63164D01*
X73443Y-63155D01*
X73424Y-63145D01*
X73386Y-63136D01*
X73367Y-63126D01*
X73358Y-63117D01*
X73348Y-63098D01*
X73348Y-63079D01*
X73358Y-63060D01*
X73367Y-63050D01*
X73386Y-63040D01*
X73434Y-63040D01*
X73462Y-63050D01*
X73539Y-63231D02*
X73567Y-63240D01*
X73615Y-63240D01*
X73634Y-63231D01*
X73643Y-63221D01*
X73653Y-63202D01*
X73653Y-63183D01*
X73643Y-63164D01*
X73634Y-63155D01*
X73615Y-63145D01*
X73577Y-63136D01*
X73558Y-63126D01*
X73548Y-63117D01*
X73539Y-63098D01*
X73539Y-63079D01*
X73548Y-63060D01*
X73558Y-63050D01*
X73577Y-63040D01*
X73624Y-63040D01*
X73653Y-63050D01*
X73777Y-63040D02*
X73815Y-63040D01*
X73834Y-63050D01*
X73853Y-63069D01*
X73862Y-63107D01*
X73862Y-63174D01*
X73853Y-63212D01*
X73834Y-63231D01*
X73815Y-63240D01*
X73777Y-63240D01*
X73758Y-63231D01*
X73739Y-63212D01*
X73729Y-63174D01*
X73729Y-63107D01*
X73739Y-63069D01*
X73758Y-63050D01*
X73777Y-63040D01*
X73948Y-63240D02*
X73948Y-63040D01*
X74024Y-63040D01*
X74043Y-63050D01*
X74053Y-63060D01*
X74062Y-63079D01*
X74062Y-63107D01*
X74053Y-63126D01*
X74043Y-63136D01*
X74024Y-63145D01*
X73948Y-63145D01*
X74253Y-63240D02*
X74139Y-63240D01*
X74196Y-63240D02*
X74196Y-63040D01*
X74177Y-63069D01*
X74158Y-63088D01*
X74139Y-63098D01*
X74424Y-63107D02*
X74424Y-63240D01*
X74377Y-63031D02*
X74329Y-63174D01*
X74453Y-63174D01*
X65838Y-60220D02*
X65838Y-60020D01*
X65904Y-60163D01*
X65971Y-60020D01*
X65971Y-60220D01*
X66057Y-60211D02*
X66085Y-60220D01*
X66133Y-60220D01*
X66152Y-60211D01*
X66161Y-60201D01*
X66171Y-60182D01*
X66171Y-60163D01*
X66161Y-60144D01*
X66152Y-60135D01*
X66133Y-60125D01*
X66095Y-60116D01*
X66076Y-60106D01*
X66066Y-60097D01*
X66057Y-60078D01*
X66057Y-60059D01*
X66066Y-60040D01*
X66076Y-60030D01*
X66095Y-60020D01*
X66142Y-60020D01*
X66171Y-60030D01*
X66295Y-60020D02*
X66333Y-60020D01*
X66352Y-60030D01*
X66371Y-60049D01*
X66380Y-60087D01*
X66380Y-60154D01*
X66371Y-60192D01*
X66352Y-60211D01*
X66333Y-60220D01*
X66295Y-60220D01*
X66276Y-60211D01*
X66257Y-60192D01*
X66247Y-60154D01*
X66247Y-60087D01*
X66257Y-60049D01*
X66276Y-60030D01*
X66295Y-60020D01*
X66466Y-60220D02*
X66466Y-60020D01*
X66542Y-60020D01*
X66561Y-60030D01*
X66571Y-60040D01*
X66580Y-60059D01*
X66580Y-60087D01*
X66571Y-60106D01*
X66561Y-60116D01*
X66542Y-60125D01*
X66466Y-60125D01*
X66695Y-60106D02*
X66676Y-60097D01*
X66666Y-60087D01*
X66657Y-60068D01*
X66657Y-60059D01*
X66666Y-60040D01*
X66676Y-60030D01*
X66695Y-60020D01*
X66733Y-60020D01*
X66752Y-60030D01*
X66761Y-60040D01*
X66771Y-60059D01*
X66771Y-60068D01*
X66761Y-60087D01*
X66752Y-60097D01*
X66733Y-60106D01*
X66695Y-60106D01*
X66676Y-60116D01*
X66666Y-60125D01*
X66657Y-60144D01*
X66657Y-60182D01*
X66666Y-60201D01*
X66676Y-60211D01*
X66695Y-60220D01*
X66733Y-60220D01*
X66752Y-60211D01*
X66761Y-60201D01*
X66771Y-60182D01*
X66771Y-60144D01*
X66761Y-60125D01*
X66752Y-60116D01*
X66733Y-60106D01*
X67318Y-60240D02*
X67318Y-60040D01*
X67384Y-60183D01*
X67451Y-60040D01*
X67451Y-60240D01*
X67537Y-60231D02*
X67565Y-60240D01*
X67613Y-60240D01*
X67632Y-60231D01*
X67641Y-60221D01*
X67651Y-60202D01*
X67651Y-60183D01*
X67641Y-60164D01*
X67632Y-60155D01*
X67613Y-60145D01*
X67575Y-60136D01*
X67556Y-60126D01*
X67546Y-60117D01*
X67537Y-60098D01*
X67537Y-60079D01*
X67546Y-60060D01*
X67556Y-60050D01*
X67575Y-60040D01*
X67622Y-60040D01*
X67651Y-60050D01*
X67775Y-60040D02*
X67813Y-60040D01*
X67832Y-60050D01*
X67851Y-60069D01*
X67860Y-60107D01*
X67860Y-60174D01*
X67851Y-60212D01*
X67832Y-60231D01*
X67813Y-60240D01*
X67775Y-60240D01*
X67756Y-60231D01*
X67737Y-60212D01*
X67727Y-60174D01*
X67727Y-60107D01*
X67737Y-60069D01*
X67756Y-60050D01*
X67775Y-60040D01*
X67946Y-60240D02*
X67946Y-60040D01*
X68022Y-60040D01*
X68041Y-60050D01*
X68051Y-60060D01*
X68060Y-60079D01*
X68060Y-60107D01*
X68051Y-60126D01*
X68041Y-60136D01*
X68022Y-60145D01*
X67946Y-60145D01*
X68175Y-60126D02*
X68156Y-60117D01*
X68146Y-60107D01*
X68137Y-60088D01*
X68137Y-60079D01*
X68146Y-60060D01*
X68156Y-60050D01*
X68175Y-60040D01*
X68213Y-60040D01*
X68232Y-60050D01*
X68241Y-60060D01*
X68251Y-60079D01*
X68251Y-60088D01*
X68241Y-60107D01*
X68232Y-60117D01*
X68213Y-60126D01*
X68175Y-60126D01*
X68156Y-60136D01*
X68146Y-60145D01*
X68137Y-60164D01*
X68137Y-60202D01*
X68146Y-60221D01*
X68156Y-60231D01*
X68175Y-60240D01*
X68213Y-60240D01*
X68232Y-60231D01*
X68241Y-60221D01*
X68251Y-60202D01*
X68251Y-60164D01*
X68241Y-60145D01*
X68232Y-60136D01*
X68213Y-60126D01*
X68838Y-60260D02*
X68838Y-60060D01*
X68904Y-60203D01*
X68971Y-60060D01*
X68971Y-60260D01*
X69057Y-60251D02*
X69085Y-60260D01*
X69133Y-60260D01*
X69152Y-60251D01*
X69161Y-60241D01*
X69171Y-60222D01*
X69171Y-60203D01*
X69161Y-60184D01*
X69152Y-60175D01*
X69133Y-60165D01*
X69095Y-60156D01*
X69076Y-60146D01*
X69066Y-60137D01*
X69057Y-60118D01*
X69057Y-60099D01*
X69066Y-60080D01*
X69076Y-60070D01*
X69095Y-60060D01*
X69142Y-60060D01*
X69171Y-60070D01*
X69295Y-60060D02*
X69333Y-60060D01*
X69352Y-60070D01*
X69371Y-60089D01*
X69380Y-60127D01*
X69380Y-60194D01*
X69371Y-60232D01*
X69352Y-60251D01*
X69333Y-60260D01*
X69295Y-60260D01*
X69276Y-60251D01*
X69257Y-60232D01*
X69247Y-60194D01*
X69247Y-60127D01*
X69257Y-60089D01*
X69276Y-60070D01*
X69295Y-60060D01*
X69466Y-60260D02*
X69466Y-60060D01*
X69542Y-60060D01*
X69561Y-60070D01*
X69571Y-60080D01*
X69580Y-60099D01*
X69580Y-60127D01*
X69571Y-60146D01*
X69561Y-60156D01*
X69542Y-60165D01*
X69466Y-60165D01*
X69695Y-60146D02*
X69676Y-60137D01*
X69666Y-60127D01*
X69657Y-60108D01*
X69657Y-60099D01*
X69666Y-60080D01*
X69676Y-60070D01*
X69695Y-60060D01*
X69733Y-60060D01*
X69752Y-60070D01*
X69761Y-60080D01*
X69771Y-60099D01*
X69771Y-60108D01*
X69761Y-60127D01*
X69752Y-60137D01*
X69733Y-60146D01*
X69695Y-60146D01*
X69676Y-60156D01*
X69666Y-60165D01*
X69657Y-60184D01*
X69657Y-60222D01*
X69666Y-60241D01*
X69676Y-60251D01*
X69695Y-60260D01*
X69733Y-60260D01*
X69752Y-60251D01*
X69761Y-60241D01*
X69771Y-60222D01*
X69771Y-60184D01*
X69761Y-60165D01*
X69752Y-60156D01*
X69733Y-60146D01*
X70398Y-60260D02*
X70398Y-60060D01*
X70464Y-60203D01*
X70531Y-60060D01*
X70531Y-60260D01*
X70617Y-60251D02*
X70645Y-60260D01*
X70693Y-60260D01*
X70712Y-60251D01*
X70721Y-60241D01*
X70731Y-60222D01*
X70731Y-60203D01*
X70721Y-60184D01*
X70712Y-60175D01*
X70693Y-60165D01*
X70655Y-60156D01*
X70636Y-60146D01*
X70626Y-60137D01*
X70617Y-60118D01*
X70617Y-60099D01*
X70626Y-60080D01*
X70636Y-60070D01*
X70655Y-60060D01*
X70702Y-60060D01*
X70731Y-60070D01*
X70855Y-60060D02*
X70893Y-60060D01*
X70912Y-60070D01*
X70931Y-60089D01*
X70940Y-60127D01*
X70940Y-60194D01*
X70931Y-60232D01*
X70912Y-60251D01*
X70893Y-60260D01*
X70855Y-60260D01*
X70836Y-60251D01*
X70817Y-60232D01*
X70807Y-60194D01*
X70807Y-60127D01*
X70817Y-60089D01*
X70836Y-60070D01*
X70855Y-60060D01*
X71026Y-60260D02*
X71026Y-60060D01*
X71102Y-60060D01*
X71121Y-60070D01*
X71131Y-60080D01*
X71140Y-60099D01*
X71140Y-60127D01*
X71131Y-60146D01*
X71121Y-60156D01*
X71102Y-60165D01*
X71026Y-60165D01*
X71255Y-60146D02*
X71236Y-60137D01*
X71226Y-60127D01*
X71217Y-60108D01*
X71217Y-60099D01*
X71226Y-60080D01*
X71236Y-60070D01*
X71255Y-60060D01*
X71293Y-60060D01*
X71312Y-60070D01*
X71321Y-60080D01*
X71331Y-60099D01*
X71331Y-60108D01*
X71321Y-60127D01*
X71312Y-60137D01*
X71293Y-60146D01*
X71255Y-60146D01*
X71236Y-60156D01*
X71226Y-60165D01*
X71217Y-60184D01*
X71217Y-60222D01*
X71226Y-60241D01*
X71236Y-60251D01*
X71255Y-60260D01*
X71293Y-60260D01*
X71312Y-60251D01*
X71321Y-60241D01*
X71331Y-60222D01*
X71331Y-60184D01*
X71321Y-60165D01*
X71312Y-60156D01*
X71293Y-60146D01*
X71958Y-60280D02*
X71958Y-60080D01*
X72024Y-60223D01*
X72091Y-60080D01*
X72091Y-60280D01*
X72177Y-60271D02*
X72205Y-60280D01*
X72253Y-60280D01*
X72272Y-60271D01*
X72281Y-60261D01*
X72291Y-60242D01*
X72291Y-60223D01*
X72281Y-60204D01*
X72272Y-60195D01*
X72253Y-60185D01*
X72215Y-60176D01*
X72196Y-60166D01*
X72186Y-60157D01*
X72177Y-60138D01*
X72177Y-60119D01*
X72186Y-60100D01*
X72196Y-60090D01*
X72215Y-60080D01*
X72262Y-60080D01*
X72291Y-60090D01*
X72415Y-60080D02*
X72453Y-60080D01*
X72472Y-60090D01*
X72491Y-60109D01*
X72500Y-60147D01*
X72500Y-60214D01*
X72491Y-60252D01*
X72472Y-60271D01*
X72453Y-60280D01*
X72415Y-60280D01*
X72396Y-60271D01*
X72377Y-60252D01*
X72367Y-60214D01*
X72367Y-60147D01*
X72377Y-60109D01*
X72396Y-60090D01*
X72415Y-60080D01*
X72586Y-60280D02*
X72586Y-60080D01*
X72662Y-60080D01*
X72681Y-60090D01*
X72691Y-60100D01*
X72700Y-60119D01*
X72700Y-60147D01*
X72691Y-60166D01*
X72681Y-60176D01*
X72662Y-60185D01*
X72586Y-60185D01*
X72815Y-60166D02*
X72796Y-60157D01*
X72786Y-60147D01*
X72777Y-60128D01*
X72777Y-60119D01*
X72786Y-60100D01*
X72796Y-60090D01*
X72815Y-60080D01*
X72853Y-60080D01*
X72872Y-60090D01*
X72881Y-60100D01*
X72891Y-60119D01*
X72891Y-60128D01*
X72881Y-60147D01*
X72872Y-60157D01*
X72853Y-60166D01*
X72815Y-60166D01*
X72796Y-60176D01*
X72786Y-60185D01*
X72777Y-60204D01*
X72777Y-60242D01*
X72786Y-60261D01*
X72796Y-60271D01*
X72815Y-60280D01*
X72853Y-60280D01*
X72872Y-60271D01*
X72881Y-60261D01*
X72891Y-60242D01*
X72891Y-60204D01*
X72881Y-60185D01*
X72872Y-60176D01*
X72853Y-60166D01*
X73638Y-60260D02*
X73638Y-60060D01*
X73704Y-60203D01*
X73771Y-60060D01*
X73771Y-60260D01*
X73857Y-60251D02*
X73885Y-60260D01*
X73933Y-60260D01*
X73952Y-60251D01*
X73961Y-60241D01*
X73971Y-60222D01*
X73971Y-60203D01*
X73961Y-60184D01*
X73952Y-60175D01*
X73933Y-60165D01*
X73895Y-60156D01*
X73876Y-60146D01*
X73866Y-60137D01*
X73857Y-60118D01*
X73857Y-60099D01*
X73866Y-60080D01*
X73876Y-60070D01*
X73895Y-60060D01*
X73942Y-60060D01*
X73971Y-60070D01*
X74095Y-60060D02*
X74133Y-60060D01*
X74152Y-60070D01*
X74171Y-60089D01*
X74180Y-60127D01*
X74180Y-60194D01*
X74171Y-60232D01*
X74152Y-60251D01*
X74133Y-60260D01*
X74095Y-60260D01*
X74076Y-60251D01*
X74057Y-60232D01*
X74047Y-60194D01*
X74047Y-60127D01*
X74057Y-60089D01*
X74076Y-60070D01*
X74095Y-60060D01*
X74266Y-60260D02*
X74266Y-60060D01*
X74342Y-60060D01*
X74361Y-60070D01*
X74371Y-60080D01*
X74380Y-60099D01*
X74380Y-60127D01*
X74371Y-60146D01*
X74361Y-60156D01*
X74342Y-60165D01*
X74266Y-60165D01*
X74495Y-60146D02*
X74476Y-60137D01*
X74466Y-60127D01*
X74457Y-60108D01*
X74457Y-60099D01*
X74466Y-60080D01*
X74476Y-60070D01*
X74495Y-60060D01*
X74533Y-60060D01*
X74552Y-60070D01*
X74561Y-60080D01*
X74571Y-60099D01*
X74571Y-60108D01*
X74561Y-60127D01*
X74552Y-60137D01*
X74533Y-60146D01*
X74495Y-60146D01*
X74476Y-60156D01*
X74466Y-60165D01*
X74457Y-60184D01*
X74457Y-60222D01*
X74466Y-60241D01*
X74476Y-60251D01*
X74495Y-60260D01*
X74533Y-60260D01*
X74552Y-60251D01*
X74561Y-60241D01*
X74571Y-60222D01*
X74571Y-60184D01*
X74561Y-60165D01*
X74552Y-60156D01*
X74533Y-60146D01*
X72864Y-58540D02*
X72883Y-58540D01*
X72902Y-58550D01*
X72912Y-58560D01*
X72921Y-58579D01*
X72931Y-58617D01*
X72931Y-58664D01*
X72921Y-58702D01*
X72912Y-58721D01*
X72902Y-58731D01*
X72883Y-58740D01*
X72864Y-58740D01*
X72845Y-58731D01*
X72836Y-58721D01*
X72826Y-58702D01*
X72817Y-58664D01*
X72817Y-58617D01*
X72826Y-58579D01*
X72836Y-58560D01*
X72845Y-58550D01*
X72864Y-58540D01*
X73045Y-58626D02*
X73026Y-58617D01*
X73017Y-58607D01*
X73007Y-58588D01*
X73007Y-58579D01*
X73017Y-58560D01*
X73026Y-58550D01*
X73045Y-58540D01*
X73083Y-58540D01*
X73102Y-58550D01*
X73112Y-58560D01*
X73121Y-58579D01*
X73121Y-58588D01*
X73112Y-58607D01*
X73102Y-58617D01*
X73083Y-58626D01*
X73045Y-58626D01*
X73026Y-58636D01*
X73017Y-58645D01*
X73007Y-58664D01*
X73007Y-58702D01*
X73017Y-58721D01*
X73026Y-58731D01*
X73045Y-58740D01*
X73083Y-58740D01*
X73102Y-58731D01*
X73112Y-58721D01*
X73121Y-58702D01*
X73121Y-58664D01*
X73112Y-58645D01*
X73102Y-58636D01*
X73083Y-58626D01*
X73245Y-58540D02*
X73264Y-58540D01*
X73283Y-58550D01*
X73293Y-58560D01*
X73302Y-58579D01*
X73312Y-58617D01*
X73312Y-58664D01*
X73302Y-58702D01*
X73293Y-58721D01*
X73283Y-58731D01*
X73264Y-58740D01*
X73245Y-58740D01*
X73226Y-58731D01*
X73217Y-58721D01*
X73207Y-58702D01*
X73198Y-58664D01*
X73198Y-58617D01*
X73207Y-58579D01*
X73217Y-58560D01*
X73226Y-58550D01*
X73245Y-58540D01*
X73493Y-58540D02*
X73398Y-58540D01*
X73388Y-58636D01*
X73398Y-58626D01*
X73417Y-58617D01*
X73464Y-58617D01*
X73483Y-58626D01*
X73493Y-58636D01*
X73502Y-58655D01*
X73502Y-58702D01*
X73493Y-58721D01*
X73483Y-58731D01*
X73464Y-58740D01*
X73417Y-58740D01*
X73398Y-58731D01*
X73388Y-58721D01*
X69744Y-58480D02*
X69763Y-58480D01*
X69782Y-58490D01*
X69792Y-58500D01*
X69801Y-58519D01*
X69811Y-58557D01*
X69811Y-58604D01*
X69801Y-58642D01*
X69792Y-58661D01*
X69782Y-58671D01*
X69763Y-58680D01*
X69744Y-58680D01*
X69725Y-58671D01*
X69716Y-58661D01*
X69706Y-58642D01*
X69697Y-58604D01*
X69697Y-58557D01*
X69706Y-58519D01*
X69716Y-58500D01*
X69725Y-58490D01*
X69744Y-58480D01*
X69982Y-58480D02*
X69944Y-58480D01*
X69925Y-58490D01*
X69916Y-58500D01*
X69897Y-58528D01*
X69887Y-58566D01*
X69887Y-58642D01*
X69897Y-58661D01*
X69906Y-58671D01*
X69925Y-58680D01*
X69963Y-58680D01*
X69982Y-58671D01*
X69992Y-58661D01*
X70001Y-58642D01*
X70001Y-58595D01*
X69992Y-58576D01*
X69982Y-58566D01*
X69963Y-58557D01*
X69925Y-58557D01*
X69906Y-58566D01*
X69897Y-58576D01*
X69887Y-58595D01*
X70125Y-58480D02*
X70144Y-58480D01*
X70163Y-58490D01*
X70173Y-58500D01*
X70182Y-58519D01*
X70192Y-58557D01*
X70192Y-58604D01*
X70182Y-58642D01*
X70173Y-58661D01*
X70163Y-58671D01*
X70144Y-58680D01*
X70125Y-58680D01*
X70106Y-58671D01*
X70097Y-58661D01*
X70087Y-58642D01*
X70078Y-58604D01*
X70078Y-58557D01*
X70087Y-58519D01*
X70097Y-58500D01*
X70106Y-58490D01*
X70125Y-58480D01*
X70259Y-58480D02*
X70382Y-58480D01*
X70316Y-58557D01*
X70344Y-58557D01*
X70363Y-58566D01*
X70373Y-58576D01*
X70382Y-58595D01*
X70382Y-58642D01*
X70373Y-58661D01*
X70363Y-58671D01*
X70344Y-58680D01*
X70287Y-58680D01*
X70268Y-58671D01*
X70259Y-58661D01*
X67564Y-58500D02*
X67583Y-58500D01*
X67602Y-58510D01*
X67612Y-58520D01*
X67621Y-58539D01*
X67631Y-58577D01*
X67631Y-58624D01*
X67621Y-58662D01*
X67612Y-58681D01*
X67602Y-58691D01*
X67583Y-58700D01*
X67564Y-58700D01*
X67545Y-58691D01*
X67536Y-58681D01*
X67526Y-58662D01*
X67517Y-58624D01*
X67517Y-58577D01*
X67526Y-58539D01*
X67536Y-58520D01*
X67545Y-58510D01*
X67564Y-58500D01*
X67802Y-58567D02*
X67802Y-58700D01*
X67755Y-58491D02*
X67707Y-58634D01*
X67831Y-58634D01*
X67945Y-58500D02*
X67964Y-58500D01*
X67983Y-58510D01*
X67993Y-58520D01*
X68002Y-58539D01*
X68012Y-58577D01*
X68012Y-58624D01*
X68002Y-58662D01*
X67993Y-58681D01*
X67983Y-58691D01*
X67964Y-58700D01*
X67945Y-58700D01*
X67926Y-58691D01*
X67917Y-58681D01*
X67907Y-58662D01*
X67898Y-58624D01*
X67898Y-58577D01*
X67907Y-58539D01*
X67917Y-58520D01*
X67926Y-58510D01*
X67945Y-58500D01*
X68088Y-58520D02*
X68098Y-58510D01*
X68117Y-58500D01*
X68164Y-58500D01*
X68183Y-58510D01*
X68193Y-58520D01*
X68202Y-58539D01*
X68202Y-58558D01*
X68193Y-58586D01*
X68079Y-58700D01*
X68202Y-58700D01*
X66084Y-58520D02*
X66103Y-58520D01*
X66122Y-58530D01*
X66132Y-58540D01*
X66141Y-58559D01*
X66151Y-58597D01*
X66151Y-58644D01*
X66141Y-58682D01*
X66132Y-58701D01*
X66122Y-58711D01*
X66103Y-58720D01*
X66084Y-58720D01*
X66065Y-58711D01*
X66056Y-58701D01*
X66046Y-58682D01*
X66037Y-58644D01*
X66037Y-58597D01*
X66046Y-58559D01*
X66056Y-58540D01*
X66065Y-58530D01*
X66084Y-58520D01*
X66227Y-58540D02*
X66237Y-58530D01*
X66256Y-58520D01*
X66303Y-58520D01*
X66322Y-58530D01*
X66332Y-58540D01*
X66341Y-58559D01*
X66341Y-58578D01*
X66332Y-58606D01*
X66218Y-58720D01*
X66341Y-58720D01*
X66465Y-58520D02*
X66484Y-58520D01*
X66503Y-58530D01*
X66513Y-58540D01*
X66522Y-58559D01*
X66532Y-58597D01*
X66532Y-58644D01*
X66522Y-58682D01*
X66513Y-58701D01*
X66503Y-58711D01*
X66484Y-58720D01*
X66465Y-58720D01*
X66446Y-58711D01*
X66437Y-58701D01*
X66427Y-58682D01*
X66418Y-58644D01*
X66418Y-58597D01*
X66427Y-58559D01*
X66437Y-58540D01*
X66446Y-58530D01*
X66465Y-58520D01*
X66722Y-58720D02*
X66608Y-58720D01*
X66665Y-58720D02*
X66665Y-58520D01*
X66646Y-58549D01*
X66627Y-58568D01*
X66608Y-58578D01*
X84108Y-64631D02*
X84137Y-64640D01*
X84184Y-64640D01*
X84203Y-64631D01*
X84213Y-64621D01*
X84222Y-64602D01*
X84222Y-64583D01*
X84213Y-64564D01*
X84203Y-64555D01*
X84184Y-64545D01*
X84146Y-64536D01*
X84127Y-64526D01*
X84118Y-64517D01*
X84108Y-64498D01*
X84108Y-64479D01*
X84118Y-64460D01*
X84127Y-64450D01*
X84146Y-64440D01*
X84194Y-64440D01*
X84222Y-64450D01*
X84308Y-64640D02*
X84308Y-64440D01*
X84375Y-64583D01*
X84441Y-64440D01*
X84441Y-64640D01*
X84537Y-64640D02*
X84537Y-64440D01*
X84584Y-64440D01*
X84613Y-64450D01*
X84632Y-64469D01*
X84641Y-64488D01*
X84651Y-64526D01*
X84651Y-64555D01*
X84641Y-64593D01*
X84632Y-64612D01*
X84613Y-64631D01*
X84584Y-64640D01*
X84537Y-64640D01*
X84099Y-64770D02*
X84213Y-64770D01*
X84156Y-64970D02*
X84156Y-64770D01*
X84356Y-64961D02*
X84337Y-64970D01*
X84299Y-64970D01*
X84280Y-64961D01*
X84270Y-64942D01*
X84270Y-64866D01*
X84280Y-64847D01*
X84299Y-64837D01*
X84337Y-64837D01*
X84356Y-64847D01*
X84365Y-64866D01*
X84365Y-64885D01*
X84270Y-64904D01*
X84441Y-64961D02*
X84460Y-64970D01*
X84499Y-64970D01*
X84518Y-64961D01*
X84527Y-64942D01*
X84527Y-64932D01*
X84518Y-64913D01*
X84499Y-64904D01*
X84470Y-64904D01*
X84451Y-64894D01*
X84441Y-64875D01*
X84441Y-64866D01*
X84451Y-64847D01*
X84470Y-64837D01*
X84499Y-64837D01*
X84518Y-64847D01*
X84584Y-64837D02*
X84660Y-64837D01*
X84613Y-64770D02*
X84613Y-64942D01*
X84622Y-64961D01*
X84641Y-64970D01*
X84660Y-64970D01*
X84065Y-65300D02*
X84065Y-65100D01*
X84141Y-65100D01*
X84160Y-65110D01*
X84170Y-65120D01*
X84180Y-65139D01*
X84180Y-65167D01*
X84170Y-65186D01*
X84160Y-65196D01*
X84141Y-65205D01*
X84065Y-65205D01*
X84351Y-65300D02*
X84351Y-65196D01*
X84341Y-65177D01*
X84322Y-65167D01*
X84284Y-65167D01*
X84265Y-65177D01*
X84351Y-65291D02*
X84332Y-65300D01*
X84284Y-65300D01*
X84265Y-65291D01*
X84256Y-65272D01*
X84256Y-65253D01*
X84265Y-65234D01*
X84284Y-65224D01*
X84332Y-65224D01*
X84351Y-65215D01*
X84532Y-65300D02*
X84532Y-65100D01*
X84532Y-65291D02*
X84513Y-65300D01*
X84475Y-65300D01*
X84456Y-65291D01*
X84446Y-65281D01*
X84437Y-65262D01*
X84437Y-65205D01*
X84446Y-65186D01*
X84456Y-65177D01*
X84475Y-65167D01*
X84513Y-65167D01*
X84532Y-65177D01*
X84618Y-65291D02*
X84637Y-65300D01*
X84675Y-65300D01*
X84694Y-65291D01*
X84703Y-65272D01*
X84703Y-65262D01*
X84694Y-65243D01*
X84675Y-65234D01*
X84646Y-65234D01*
X84627Y-65224D01*
X84618Y-65205D01*
X84618Y-65196D01*
X84627Y-65177D01*
X84646Y-65167D01*
X84675Y-65167D01*
X84694Y-65177D01*
G54D12*
X77109Y-59721D02*
X77090Y-59740D01*
X77034Y-59759D01*
X76997Y-59759D01*
X76940Y-59740D01*
X76903Y-59703D01*
X76884Y-59665D01*
X76865Y-59590D01*
X76865Y-59534D01*
X76884Y-59459D01*
X76903Y-59421D01*
X76940Y-59384D01*
X76997Y-59365D01*
X77034Y-59365D01*
X77090Y-59384D01*
X77109Y-59403D01*
X77447Y-59759D02*
X77447Y-59553D01*
X77428Y-59515D01*
X77390Y-59496D01*
X77315Y-59496D01*
X77278Y-59515D01*
X77447Y-59740D02*
X77409Y-59759D01*
X77315Y-59759D01*
X77278Y-59740D01*
X77259Y-59703D01*
X77259Y-59665D01*
X77278Y-59628D01*
X77315Y-59609D01*
X77409Y-59609D01*
X77447Y-59590D01*
X77634Y-59496D02*
X77634Y-59890D01*
X77634Y-59515D02*
X77672Y-59496D01*
X77747Y-59496D01*
X77784Y-59515D01*
X77803Y-59534D01*
X77822Y-59571D01*
X77822Y-59684D01*
X77803Y-59721D01*
X77784Y-59740D01*
X77747Y-59759D01*
X77672Y-59759D01*
X77634Y-59740D01*
X78159Y-59759D02*
X78159Y-59553D01*
X78140Y-59515D01*
X78103Y-59496D01*
X78028Y-59496D01*
X77990Y-59515D01*
X78159Y-59740D02*
X78121Y-59759D01*
X78028Y-59759D01*
X77990Y-59740D01*
X77971Y-59703D01*
X77971Y-59665D01*
X77990Y-59628D01*
X78028Y-59609D01*
X78121Y-59609D01*
X78159Y-59590D01*
X78515Y-59740D02*
X78478Y-59759D01*
X78403Y-59759D01*
X78365Y-59740D01*
X78346Y-59721D01*
X78328Y-59684D01*
X78328Y-59571D01*
X78346Y-59534D01*
X78365Y-59515D01*
X78403Y-59496D01*
X78478Y-59496D01*
X78515Y-59515D01*
X78684Y-59759D02*
X78684Y-59496D01*
X78684Y-59365D02*
X78665Y-59384D01*
X78684Y-59403D01*
X78703Y-59384D01*
X78684Y-59365D01*
X78684Y-59403D01*
X78815Y-59496D02*
X78965Y-59496D01*
X78871Y-59365D02*
X78871Y-59703D01*
X78890Y-59740D01*
X78928Y-59759D01*
X78965Y-59759D01*
X79153Y-59759D02*
X79115Y-59740D01*
X79096Y-59721D01*
X79078Y-59684D01*
X79078Y-59571D01*
X79096Y-59534D01*
X79115Y-59515D01*
X79153Y-59496D01*
X79209Y-59496D01*
X79246Y-59515D01*
X79265Y-59534D01*
X79284Y-59571D01*
X79284Y-59684D01*
X79265Y-59721D01*
X79246Y-59740D01*
X79209Y-59759D01*
X79153Y-59759D01*
X79453Y-59759D02*
X79453Y-59496D01*
X79453Y-59571D02*
X79471Y-59534D01*
X79490Y-59515D01*
X79528Y-59496D01*
X79565Y-59496D01*
X79996Y-59759D02*
X79996Y-59365D01*
X80090Y-59365D01*
X80146Y-59384D01*
X80184Y-59421D01*
X80202Y-59459D01*
X80221Y-59534D01*
X80221Y-59590D01*
X80202Y-59665D01*
X80184Y-59703D01*
X80146Y-59740D01*
X80090Y-59759D01*
X79996Y-59759D01*
X80390Y-59365D02*
X80390Y-59684D01*
X80409Y-59721D01*
X80427Y-59740D01*
X80465Y-59759D01*
X80540Y-59759D01*
X80577Y-59740D01*
X80596Y-59721D01*
X80615Y-59684D01*
X80615Y-59365D01*
X80746Y-59365D02*
X80971Y-59365D01*
X80859Y-59759D02*
X80859Y-59365D01*
G54D13*
X81140Y-59920D02*
X77060Y-59920D01*
X81140Y-60220D02*
X81160Y-60220D01*
X81140Y-59560D02*
X81140Y-60220D01*
X81300Y-60200D02*
X81320Y-60200D01*
X81300Y-59580D02*
X81300Y-60200D01*
X81300Y-59920D02*
X81300Y-59900D01*
X81700Y-59920D02*
X81300Y-59920D01*
X81700Y-59260D02*
X81700Y-59920D01*
G54D12*
X77041Y-63319D02*
X77041Y-62925D01*
X77228Y-63056D02*
X77228Y-63319D01*
X77228Y-63094D02*
X77247Y-63075D01*
X77285Y-63056D01*
X77341Y-63056D01*
X77378Y-63075D01*
X77397Y-63113D01*
X77397Y-63319D01*
X77753Y-63319D02*
X77753Y-62925D01*
X77753Y-63300D02*
X77716Y-63319D01*
X77641Y-63319D01*
X77603Y-63300D01*
X77585Y-63281D01*
X77566Y-63244D01*
X77566Y-63131D01*
X77585Y-63094D01*
X77603Y-63075D01*
X77641Y-63056D01*
X77716Y-63056D01*
X77753Y-63075D01*
X78110Y-63056D02*
X78110Y-63319D01*
X77941Y-63056D02*
X77941Y-63263D01*
X77960Y-63300D01*
X77997Y-63319D01*
X78053Y-63319D01*
X78091Y-63300D01*
X78110Y-63281D01*
X78466Y-63300D02*
X78428Y-63319D01*
X78353Y-63319D01*
X78316Y-63300D01*
X78297Y-63281D01*
X78278Y-63244D01*
X78278Y-63131D01*
X78297Y-63094D01*
X78316Y-63075D01*
X78353Y-63056D01*
X78428Y-63056D01*
X78466Y-63075D01*
X78578Y-63056D02*
X78728Y-63056D01*
X78635Y-62925D02*
X78635Y-63263D01*
X78653Y-63300D01*
X78691Y-63319D01*
X78728Y-63319D01*
X78916Y-63319D02*
X78878Y-63300D01*
X78860Y-63281D01*
X78841Y-63244D01*
X78841Y-63131D01*
X78860Y-63094D01*
X78878Y-63075D01*
X78916Y-63056D01*
X78972Y-63056D01*
X79009Y-63075D01*
X79028Y-63094D01*
X79047Y-63131D01*
X79047Y-63244D01*
X79028Y-63281D01*
X79009Y-63300D01*
X78972Y-63319D01*
X78916Y-63319D01*
X79216Y-63319D02*
X79216Y-63056D01*
X79216Y-63131D02*
X79234Y-63094D01*
X79253Y-63075D01*
X79291Y-63056D01*
X79328Y-63056D01*
X79759Y-63319D02*
X79759Y-62925D01*
X79853Y-62925D01*
X79909Y-62944D01*
X79947Y-62981D01*
X79966Y-63019D01*
X79984Y-63094D01*
X79984Y-63150D01*
X79966Y-63225D01*
X79947Y-63263D01*
X79909Y-63300D01*
X79853Y-63319D01*
X79759Y-63319D01*
X80153Y-62925D02*
X80153Y-63244D01*
X80172Y-63281D01*
X80191Y-63300D01*
X80228Y-63319D01*
X80303Y-63319D01*
X80341Y-63300D01*
X80359Y-63281D01*
X80378Y-63244D01*
X80378Y-62925D01*
X80509Y-62925D02*
X80734Y-62925D01*
X80622Y-63319D02*
X80622Y-62925D01*
G54D13*
X79320Y-63520D02*
X76720Y-63520D01*
X81740Y-63860D02*
X81720Y-63860D01*
X81740Y-63520D02*
X81740Y-63860D01*
X79980Y-63520D02*
X79320Y-63520D01*
X81420Y-63520D02*
X81740Y-63520D01*
X81060Y-63520D02*
G75*
G03X80700Y-63520I-180J-180D01*
G74*
G01*
X81420Y-63520D02*
G75*
G03X81060Y-63520I-180J-180D01*
G74*
G01*
X80700Y-63520D02*
G75*
G03X80340Y-63520I-180J-180D01*
G74*
G01*
X80340Y-63520D02*
G75*
G03X79980Y-63520I-180J-180D01*
G74*
G01*
G54D11*
X79129Y-65820D02*
X79015Y-65820D01*
X79072Y-65820D02*
X79072Y-65620D01*
X79053Y-65649D01*
X79034Y-65668D01*
X79015Y-65678D01*
X79215Y-65687D02*
X79215Y-65820D01*
X79215Y-65706D02*
X79224Y-65697D01*
X79243Y-65687D01*
X79272Y-65687D01*
X79291Y-65697D01*
X79300Y-65716D01*
X79300Y-65820D01*
X79462Y-65716D02*
X79396Y-65716D01*
X79396Y-65820D02*
X79396Y-65620D01*
X79491Y-65620D01*
X78319Y-66227D02*
X78310Y-66217D01*
X78291Y-66189D01*
X78281Y-66170D01*
X78272Y-66141D01*
X78262Y-66093D01*
X78262Y-66055D01*
X78272Y-66008D01*
X78281Y-65979D01*
X78291Y-65960D01*
X78310Y-65931D01*
X78319Y-65922D01*
X78367Y-65950D02*
X78481Y-65950D01*
X78424Y-66150D02*
X78424Y-65950D01*
X78529Y-66017D02*
X78577Y-66150D01*
X78624Y-66017D02*
X78577Y-66150D01*
X78558Y-66198D01*
X78548Y-66208D01*
X78529Y-66217D01*
X78700Y-66017D02*
X78700Y-66217D01*
X78700Y-66027D02*
X78719Y-66017D01*
X78758Y-66017D01*
X78777Y-66027D01*
X78786Y-66036D01*
X78796Y-66055D01*
X78796Y-66112D01*
X78786Y-66131D01*
X78777Y-66141D01*
X78758Y-66150D01*
X78719Y-66150D01*
X78700Y-66141D01*
X78881Y-66150D02*
X78881Y-66017D01*
X78881Y-65950D02*
X78872Y-65960D01*
X78881Y-65970D01*
X78891Y-65960D01*
X78881Y-65950D01*
X78881Y-65970D01*
X79062Y-66141D02*
X79043Y-66150D01*
X79005Y-66150D01*
X78986Y-66141D01*
X78977Y-66131D01*
X78967Y-66112D01*
X78967Y-66055D01*
X78977Y-66036D01*
X78986Y-66027D01*
X79005Y-66017D01*
X79043Y-66017D01*
X79062Y-66027D01*
X79234Y-66150D02*
X79234Y-66046D01*
X79224Y-66027D01*
X79205Y-66017D01*
X79167Y-66017D01*
X79148Y-66027D01*
X79234Y-66141D02*
X79215Y-66150D01*
X79167Y-66150D01*
X79148Y-66141D01*
X79139Y-66122D01*
X79139Y-66103D01*
X79148Y-66084D01*
X79167Y-66074D01*
X79215Y-66074D01*
X79234Y-66065D01*
X79358Y-66150D02*
X79339Y-66141D01*
X79329Y-66122D01*
X79329Y-65950D01*
X79415Y-66227D02*
X79424Y-66217D01*
X79443Y-66189D01*
X79453Y-66170D01*
X79462Y-66141D01*
X79472Y-66093D01*
X79472Y-66055D01*
X79462Y-66008D01*
X79453Y-65979D01*
X79443Y-65960D01*
X79424Y-65931D01*
X79415Y-65922D01*
G54D13*
X76220Y-62400D02*
X76200Y-62400D01*
X75040Y-56820D02*
X75040Y-66820D01*
G54D11*
X83010Y-62450D02*
X83010Y-63350D01*
X83010Y-63350D02*
X82510Y-63350D01*
X82510Y-63350D02*
X82510Y-62450D01*
X82510Y-62450D02*
X83010Y-62450D01*
X82430Y-59690D02*
X82430Y-58790D01*
X82430Y-58790D02*
X82930Y-58790D01*
X82930Y-58790D02*
X82930Y-59690D01*
X82930Y-59690D02*
X82430Y-59690D01*
X82850Y-60390D02*
X82850Y-61290D01*
X82850Y-61290D02*
X82350Y-61290D01*
X82350Y-61290D02*
X82350Y-60390D01*
X82350Y-60390D02*
X82850Y-60390D01*
X79470Y-61410D02*
X79470Y-60510D01*
X79470Y-60510D02*
X79970Y-60510D01*
X79970Y-60510D02*
X79970Y-61410D01*
X79970Y-61410D02*
X79470Y-61410D01*
G54D14*
X81660Y-66440D02*
X79680Y-66440D01*
X79680Y-66440D02*
X79680Y-65440D01*
X79680Y-65440D02*
X81680Y-65440D01*
X81680Y-65440D02*
X81680Y-66440D01*
X81680Y-66190D02*
X81430Y-66440D01*
G54D10*
X83600Y-57920D02*
G75*
G03X83600Y-57920I-640J0D01*
G74*
G01*
X83600Y-65760D02*
G75*
G03X83600Y-65760I-640J0D01*
G74*
G01*
X83260Y-62670D02*
X83260Y-62410D01*
X83260Y-63580D02*
X83260Y-63860D01*
X83270Y-63570D02*
G75*
G03X83270Y-63350I-110J110D01*
G74*
G01*
X83270Y-63350D02*
G75*
G03X83270Y-63130I-110J110D01*
G74*
G01*
X83270Y-62910D02*
G75*
G03X83270Y-62690I-110J110D01*
G74*
G01*
X83270Y-63130D02*
G75*
G03X83270Y-62910I-110J110D01*
G74*
G01*
X83280Y-60530D02*
X83280Y-60880D01*
X82990Y-60530D02*
X83530Y-60530D01*
X82980Y-60380D02*
X83540Y-60380D01*
X83280Y-59930D02*
X83280Y-60380D01*
X76860Y-60500D02*
G75*
G03X76860Y-60500I-640J0D01*
G74*
G01*
X76860Y-62400D02*
G75*
G03X76860Y-62400I-640J0D01*
G74*
G01*
G54D14*
X82180Y-63840D02*
X82180Y-64840D01*
X82180Y-64840D02*
X76180Y-64840D01*
X76180Y-64840D02*
X76180Y-63840D01*
X76180Y-63840D02*
X82180Y-63840D01*
X81180Y-63840D02*
X81180Y-64840D01*
X82180Y-58240D02*
X82180Y-59240D01*
X82180Y-59240D02*
X76180Y-59240D01*
X76180Y-59240D02*
X76180Y-58240D01*
X76180Y-58240D02*
X82180Y-58240D01*
X81180Y-58240D02*
X81180Y-59240D01*
G54D15*
X74670Y-58450D02*
G75*
G03X74670Y-58450I-50J0D01*
G74*
G01*
X74620Y-58000D02*
X74620Y-58400D01*
X74620Y-58400D02*
X74020Y-58400D01*
X74020Y-58400D02*
X74020Y-58000D01*
X74020Y-57600D02*
X74020Y-57200D01*
X74020Y-57200D02*
X74620Y-57200D01*
X74620Y-57200D02*
X74620Y-57600D01*
X73870Y-58450D02*
G75*
G03X73870Y-58450I-50J0D01*
G74*
G01*
X73820Y-58000D02*
X73820Y-58400D01*
X73820Y-58400D02*
X73220Y-58400D01*
X73220Y-58400D02*
X73220Y-58000D01*
X73220Y-57600D02*
X73220Y-57200D01*
X73220Y-57200D02*
X73820Y-57200D01*
X73820Y-57200D02*
X73820Y-57600D01*
X73070Y-58450D02*
G75*
G03X73070Y-58450I-50J0D01*
G74*
G01*
X73020Y-58000D02*
X73020Y-58400D01*
X73020Y-58400D02*
X72420Y-58400D01*
X72420Y-58400D02*
X72420Y-58000D01*
X72420Y-57600D02*
X72420Y-57200D01*
X72420Y-57200D02*
X73020Y-57200D01*
X73020Y-57200D02*
X73020Y-57600D01*
G54D11*
X70150Y-58370D02*
X70150Y-57470D01*
X70150Y-57470D02*
X70650Y-57470D01*
X70650Y-57470D02*
X70650Y-58370D01*
X70650Y-58370D02*
X70150Y-58370D01*
X69430Y-58370D02*
X69430Y-57470D01*
X69430Y-57470D02*
X69930Y-57470D01*
X69930Y-57470D02*
X69930Y-58370D01*
X69930Y-58370D02*
X69430Y-58370D01*
X68710Y-58370D02*
X68710Y-57470D01*
X68710Y-57470D02*
X69210Y-57470D01*
X69210Y-57470D02*
X69210Y-58370D01*
X69210Y-58370D02*
X68710Y-58370D01*
G54D16*
X68190Y-58200D02*
X68190Y-58400D01*
X68190Y-58400D02*
X68490Y-58400D01*
X68490Y-58400D02*
X68490Y-58200D01*
X68190Y-58000D02*
X68190Y-57800D01*
X68190Y-57800D02*
X68490Y-57800D01*
X68490Y-57800D02*
X68490Y-58000D01*
X67690Y-58200D02*
X67690Y-58400D01*
X67690Y-58400D02*
X67990Y-58400D01*
X67990Y-58400D02*
X67990Y-58200D01*
X67690Y-58000D02*
X67690Y-57800D01*
X67690Y-57800D02*
X67990Y-57800D01*
X67990Y-57800D02*
X67990Y-58000D01*
X67190Y-58200D02*
X67190Y-58400D01*
X67190Y-58400D02*
X67490Y-58400D01*
X67490Y-58400D02*
X67490Y-58200D01*
X67190Y-58000D02*
X67190Y-57800D01*
X67190Y-57800D02*
X67490Y-57800D01*
X67490Y-57800D02*
X67490Y-58000D01*
G54D17*
X66721Y-58121D02*
X66721Y-58022D01*
X66721Y-58022D02*
X66721Y-58003D01*
X66721Y-58003D02*
X66918Y-58003D01*
X66918Y-58003D02*
X66918Y-58121D01*
X66721Y-58278D02*
X66721Y-58396D01*
X66721Y-58396D02*
X66918Y-58396D01*
X66918Y-58396D02*
X66918Y-58278D01*
X66281Y-58121D02*
X66281Y-58022D01*
X66281Y-58022D02*
X66281Y-58003D01*
X66281Y-58003D02*
X66478Y-58003D01*
X66478Y-58003D02*
X66478Y-58121D01*
X66281Y-58278D02*
X66281Y-58396D01*
X66281Y-58396D02*
X66478Y-58396D01*
X66478Y-58396D02*
X66478Y-58278D01*
X65841Y-58121D02*
X65841Y-58022D01*
X65841Y-58022D02*
X65841Y-58003D01*
X65841Y-58003D02*
X66038Y-58003D01*
X66038Y-58003D02*
X66038Y-58121D01*
X65841Y-58278D02*
X65841Y-58396D01*
X65841Y-58396D02*
X66038Y-58396D01*
X66038Y-58396D02*
X66038Y-58278D01*
G54D18*
X73955Y-60865D02*
X73455Y-60390D01*
X73455Y-60865D02*
X74705Y-60865D01*
X74705Y-60865D02*
X74705Y-59615D01*
X74705Y-59615D02*
X73455Y-59615D01*
X73455Y-59615D02*
X73455Y-60865D01*
X72295Y-60865D02*
X71795Y-60390D01*
X71795Y-60865D02*
X73045Y-60865D01*
X73045Y-60865D02*
X73045Y-59615D01*
X73045Y-59615D02*
X71795Y-59615D01*
X71795Y-59615D02*
X71795Y-60865D01*
X70715Y-60845D02*
X70215Y-60370D01*
X70215Y-60845D02*
X71465Y-60845D01*
X71465Y-60845D02*
X71465Y-59595D01*
X71465Y-59595D02*
X70215Y-59595D01*
X70215Y-59595D02*
X70215Y-60845D01*
X69155Y-60865D02*
X68655Y-60390D01*
X68655Y-60865D02*
X69905Y-60865D01*
X69905Y-60865D02*
X69905Y-59615D01*
X69905Y-59615D02*
X68655Y-59615D01*
X68655Y-59615D02*
X68655Y-60865D01*
X67635Y-60825D02*
X67135Y-60350D01*
X67135Y-60825D02*
X68385Y-60825D01*
X68385Y-60825D02*
X68385Y-59575D01*
X68385Y-59575D02*
X67135Y-59575D01*
X67135Y-59575D02*
X67135Y-60825D01*
X66175Y-60825D02*
X65675Y-60350D01*
X65675Y-60825D02*
X66925Y-60825D01*
X66925Y-60825D02*
X66925Y-59575D01*
X66925Y-59575D02*
X65675Y-59575D01*
X65675Y-59575D02*
X65675Y-60825D01*
X72830Y-62460D02*
X74730Y-62460D01*
X74730Y-62460D02*
X74730Y-63860D01*
X74730Y-63860D02*
X72830Y-63860D01*
X72830Y-63860D02*
X72830Y-62460D01*
X73230Y-63610D02*
G75*
G03X73230Y-63610I-150J0D01*
G74*
G01*
X70550Y-62440D02*
X72450Y-62440D01*
X72450Y-62440D02*
X72450Y-63840D01*
X72450Y-63840D02*
X70550Y-63840D01*
X70550Y-63840D02*
X70550Y-62440D01*
X70950Y-63590D02*
G75*
G03X70950Y-63590I-150J0D01*
G74*
G01*
X68210Y-62440D02*
X70110Y-62440D01*
X70110Y-62440D02*
X70110Y-63840D01*
X70110Y-63840D02*
X68210Y-63840D01*
X68210Y-63840D02*
X68210Y-62440D01*
X68610Y-63590D02*
G75*
G03X68610Y-63590I-150J0D01*
G74*
G01*
X65890Y-62440D02*
X67790Y-62440D01*
X67790Y-62440D02*
X67790Y-63840D01*
X67790Y-63840D02*
X65890Y-63840D01*
X65890Y-63840D02*
X65890Y-62440D01*
X66290Y-63590D02*
G75*
G03X66290Y-63590I-150J0D01*
G74*
G01*
G54D17*
X65841Y-57461D02*
X65841Y-57362D01*
X65841Y-57362D02*
X65841Y-57343D01*
X65841Y-57343D02*
X66038Y-57343D01*
X66038Y-57343D02*
X66038Y-57461D01*
X65841Y-57618D02*
X65841Y-57736D01*
X65841Y-57736D02*
X66038Y-57736D01*
X66038Y-57736D02*
X66038Y-57618D01*
X66301Y-57461D02*
X66301Y-57362D01*
X66301Y-57362D02*
X66301Y-57343D01*
X66301Y-57343D02*
X66498Y-57343D01*
X66498Y-57343D02*
X66498Y-57461D01*
X66301Y-57618D02*
X66301Y-57736D01*
X66301Y-57736D02*
X66498Y-57736D01*
X66498Y-57736D02*
X66498Y-57618D01*
X66721Y-57461D02*
X66721Y-57362D01*
X66721Y-57362D02*
X66721Y-57343D01*
X66721Y-57343D02*
X66918Y-57343D01*
X66918Y-57343D02*
X66918Y-57461D01*
X66721Y-57618D02*
X66721Y-57736D01*
X66721Y-57736D02*
X66918Y-57736D01*
X66918Y-57736D02*
X66918Y-57618D01*
G54D16*
X67190Y-57440D02*
X67190Y-57640D01*
X67190Y-57640D02*
X67490Y-57640D01*
X67490Y-57640D02*
X67490Y-57440D01*
X67190Y-57240D02*
X67190Y-57040D01*
X67190Y-57040D02*
X67490Y-57040D01*
X67490Y-57040D02*
X67490Y-57240D01*
X67690Y-57460D02*
X67690Y-57660D01*
X67690Y-57660D02*
X67990Y-57660D01*
X67990Y-57660D02*
X67990Y-57460D01*
X67690Y-57260D02*
X67690Y-57060D01*
X67690Y-57060D02*
X67990Y-57060D01*
X67990Y-57060D02*
X67990Y-57260D01*
X68190Y-57460D02*
X68190Y-57660D01*
X68190Y-57660D02*
X68490Y-57660D01*
X68490Y-57660D02*
X68490Y-57460D01*
X68190Y-57260D02*
X68190Y-57060D01*
X68190Y-57060D02*
X68490Y-57060D01*
X68490Y-57060D02*
X68490Y-57260D01*
G54D11*
X70870Y-58370D02*
X70870Y-57470D01*
X70870Y-57470D02*
X71370Y-57470D01*
X71370Y-57470D02*
X71370Y-58370D01*
X71370Y-58370D02*
X70870Y-58370D01*
G54D15*
X72270Y-58450D02*
G75*
G03X72270Y-58450I-50J0D01*
G74*
G01*
X72220Y-58000D02*
X72220Y-58400D01*
X72220Y-58400D02*
X71620Y-58400D01*
X71620Y-58400D02*
X71620Y-58000D01*
X71620Y-57600D02*
X71620Y-57200D01*
X71620Y-57200D02*
X72220Y-57200D01*
X72220Y-57200D02*
X72220Y-57600D01*
G54D18*
X76170Y-65530D02*
X77620Y-65530D01*
X77620Y-65530D02*
X77820Y-65730D01*
X77820Y-65730D02*
X77820Y-66030D01*
X77820Y-66030D02*
X77620Y-66230D01*
X77620Y-66230D02*
X76170Y-66230D01*
X76170Y-66230D02*
X75970Y-66030D01*
X75970Y-66030D02*
X75970Y-65730D01*
X75970Y-65730D02*
X76170Y-65530D01*
G54D19*
X73579Y-65778D02*
G75*
G03X73579Y-65778I-62J0D01*
G74*
G01*
X74480Y-65440D02*
X74480Y-65840D01*
X73455Y-65440D02*
X73455Y-65840D01*
X74480Y-65840D02*
X73455Y-65840D01*
X73455Y-65440D02*
X74480Y-65440D01*
X72099Y-65798D02*
G75*
G03X72099Y-65798I-62J0D01*
G74*
G01*
X73000Y-65460D02*
X73000Y-65860D01*
X71975Y-65460D02*
X71975Y-65860D01*
X73000Y-65860D02*
X71975Y-65860D01*
X71975Y-65460D02*
X73000Y-65460D01*
X70619Y-65778D02*
G75*
G03X70619Y-65778I-62J0D01*
G74*
G01*
X71520Y-65440D02*
X71520Y-65840D01*
X70495Y-65440D02*
X70495Y-65840D01*
X71520Y-65840D02*
X70495Y-65840D01*
X70495Y-65440D02*
X71520Y-65440D01*
X69159Y-65798D02*
G75*
G03X69159Y-65798I-62J0D01*
G74*
G01*
X70060Y-65460D02*
X70060Y-65860D01*
X69035Y-65460D02*
X69035Y-65860D01*
X70060Y-65860D02*
X69035Y-65860D01*
X69035Y-65460D02*
X70060Y-65460D01*
G54D11*
X67060Y-65190D02*
X67060Y-65890D01*
X67060Y-65890D02*
X65860Y-65890D01*
X65860Y-65890D02*
X65860Y-65190D01*
X65860Y-65190D02*
X67060Y-65190D01*
X68640Y-65190D02*
X68640Y-65890D01*
X68640Y-65890D02*
X67440Y-65890D01*
X67440Y-65890D02*
X67440Y-65190D01*
X67440Y-65190D02*
X68640Y-65190D01*
G54D20*
X82361Y-62930D02*
X82371Y-62938D01*
X82380Y-62964D01*
X82380Y-62981D01*
X82371Y-63007D01*
X82352Y-63024D01*
X82333Y-63032D01*
X82295Y-63041D01*
X82266Y-63041D01*
X82228Y-63032D01*
X82209Y-63024D01*
X82190Y-63007D01*
X82180Y-62981D01*
X82180Y-62964D01*
X82190Y-62938D01*
X82200Y-62930D01*
X82180Y-62870D02*
X82180Y-62758D01*
X82257Y-62818D01*
X82257Y-62792D01*
X82266Y-62775D01*
X82276Y-62767D01*
X82295Y-62758D01*
X82342Y-62758D01*
X82361Y-62767D01*
X82371Y-62775D01*
X82380Y-62792D01*
X82380Y-62844D01*
X82371Y-62861D01*
X82361Y-62870D01*
X83240Y-59270D02*
X83145Y-59330D01*
X83240Y-59372D02*
X83040Y-59372D01*
X83040Y-59304D01*
X83050Y-59287D01*
X83060Y-59278D01*
X83079Y-59270D01*
X83107Y-59270D01*
X83126Y-59278D01*
X83136Y-59287D01*
X83145Y-59304D01*
X83145Y-59372D01*
X83040Y-59210D02*
X83040Y-59090D01*
X83240Y-59167D01*
X82240Y-60870D02*
X82145Y-60930D01*
X82240Y-60972D02*
X82040Y-60972D01*
X82040Y-60904D01*
X82050Y-60887D01*
X82060Y-60878D01*
X82079Y-60870D01*
X82107Y-60870D01*
X82126Y-60878D01*
X82136Y-60887D01*
X82145Y-60904D01*
X82145Y-60972D01*
X82060Y-60801D02*
X82050Y-60792D01*
X82040Y-60775D01*
X82040Y-60732D01*
X82050Y-60715D01*
X82060Y-60707D01*
X82079Y-60698D01*
X82098Y-60698D01*
X82126Y-60707D01*
X82240Y-60810D01*
X82240Y-60698D01*
X80281Y-60990D02*
X80291Y-60998D01*
X80300Y-61024D01*
X80300Y-61041D01*
X80291Y-61067D01*
X80272Y-61084D01*
X80253Y-61092D01*
X80215Y-61101D01*
X80186Y-61101D01*
X80148Y-61092D01*
X80129Y-61084D01*
X80110Y-61067D01*
X80100Y-61041D01*
X80100Y-61024D01*
X80110Y-60998D01*
X80120Y-60990D01*
X80120Y-60921D02*
X80110Y-60912D01*
X80100Y-60895D01*
X80100Y-60852D01*
X80110Y-60835D01*
X80120Y-60827D01*
X80139Y-60818D01*
X80158Y-60818D01*
X80186Y-60827D01*
X80300Y-60930D01*
X80300Y-60818D01*
G54D11*
X83958Y-58001D02*
X83948Y-58011D01*
X83920Y-58020D01*
X83900Y-58020D01*
X83872Y-58011D01*
X83853Y-57992D01*
X83843Y-57973D01*
X83834Y-57935D01*
X83834Y-57906D01*
X83843Y-57868D01*
X83853Y-57849D01*
X83872Y-57830D01*
X83900Y-57820D01*
X83920Y-57820D01*
X83948Y-57830D01*
X83958Y-57840D01*
X84043Y-57944D02*
X84196Y-57944D01*
X84262Y-57820D02*
X84377Y-57820D01*
X84320Y-58020D02*
X84320Y-57820D01*
X84520Y-58011D02*
X84500Y-58020D01*
X84462Y-58020D01*
X84443Y-58011D01*
X84434Y-57992D01*
X84434Y-57916D01*
X84443Y-57897D01*
X84462Y-57887D01*
X84500Y-57887D01*
X84520Y-57897D01*
X84529Y-57916D01*
X84529Y-57935D01*
X84434Y-57954D01*
X84605Y-58011D02*
X84624Y-58020D01*
X84662Y-58020D01*
X84681Y-58011D01*
X84691Y-57992D01*
X84691Y-57982D01*
X84681Y-57963D01*
X84662Y-57954D01*
X84634Y-57954D01*
X84615Y-57944D01*
X84605Y-57925D01*
X84605Y-57916D01*
X84615Y-57897D01*
X84634Y-57887D01*
X84662Y-57887D01*
X84681Y-57897D01*
X84748Y-57887D02*
X84824Y-57887D01*
X84777Y-57820D02*
X84777Y-57992D01*
X84786Y-58011D01*
X84805Y-58020D01*
X84824Y-58020D01*
X83898Y-65860D02*
X83802Y-65860D01*
X83802Y-65660D01*
X83964Y-65784D02*
X84117Y-65784D01*
X84183Y-65660D02*
X84298Y-65660D01*
X84240Y-65860D02*
X84240Y-65660D01*
X84440Y-65851D02*
X84421Y-65860D01*
X84383Y-65860D01*
X84364Y-65851D01*
X84355Y-65832D01*
X84355Y-65756D01*
X84364Y-65737D01*
X84383Y-65727D01*
X84421Y-65727D01*
X84440Y-65737D01*
X84450Y-65756D01*
X84450Y-65775D01*
X84355Y-65794D01*
X84526Y-65851D02*
X84545Y-65860D01*
X84583Y-65860D01*
X84602Y-65851D01*
X84612Y-65832D01*
X84612Y-65822D01*
X84602Y-65803D01*
X84583Y-65794D01*
X84555Y-65794D01*
X84536Y-65784D01*
X84526Y-65765D01*
X84526Y-65756D01*
X84536Y-65737D01*
X84555Y-65727D01*
X84583Y-65727D01*
X84602Y-65737D01*
X84669Y-65727D02*
X84745Y-65727D01*
X84698Y-65660D02*
X84698Y-65832D01*
X84707Y-65851D01*
X84726Y-65860D01*
X84745Y-65860D01*
G54D10*
X77200Y-60344D02*
X77162Y-60325D01*
X77106Y-60325D01*
X77050Y-60344D01*
X77012Y-60381D01*
X76993Y-60419D01*
X76975Y-60494D01*
X76975Y-60550D01*
X76993Y-60625D01*
X77012Y-60663D01*
X77050Y-60700D01*
X77106Y-60719D01*
X77143Y-60719D01*
X77200Y-60700D01*
X77218Y-60681D01*
X77218Y-60550D01*
X77143Y-60550D01*
X77387Y-60719D02*
X77387Y-60325D01*
X77612Y-60719D01*
X77612Y-60325D01*
X77799Y-60719D02*
X77799Y-60325D01*
X77893Y-60325D01*
X77949Y-60344D01*
X77987Y-60381D01*
X78006Y-60419D01*
X78024Y-60494D01*
X78024Y-60550D01*
X78006Y-60625D01*
X77987Y-60663D01*
X77949Y-60700D01*
X77893Y-60719D01*
X77799Y-60719D01*
X76995Y-62345D02*
X77126Y-62739D01*
X77257Y-62345D01*
X77613Y-62701D02*
X77594Y-62720D01*
X77538Y-62739D01*
X77501Y-62739D01*
X77445Y-62720D01*
X77407Y-62683D01*
X77388Y-62645D01*
X77370Y-62570D01*
X77370Y-62514D01*
X77388Y-62439D01*
X77407Y-62401D01*
X77445Y-62364D01*
X77501Y-62345D01*
X77538Y-62345D01*
X77594Y-62364D01*
X77613Y-62383D01*
X78007Y-62701D02*
X77988Y-62720D01*
X77932Y-62739D01*
X77894Y-62739D01*
X77838Y-62720D01*
X77801Y-62683D01*
X77782Y-62645D01*
X77763Y-62570D01*
X77763Y-62514D01*
X77782Y-62439D01*
X77801Y-62401D01*
X77838Y-62364D01*
X77894Y-62345D01*
X77932Y-62345D01*
X77988Y-62364D01*
X78007Y-62383D01*
G54D21*
X76741Y-66315D02*
X76712Y-66301D01*
X76670Y-66301D01*
X76627Y-66315D01*
X76598Y-66344D01*
X76584Y-66372D01*
X76570Y-66430D01*
X76570Y-66472D01*
X76584Y-66530D01*
X76598Y-66558D01*
X76627Y-66587D01*
X76670Y-66601D01*
X76698Y-66601D01*
X76741Y-66587D01*
X76755Y-66572D01*
X76755Y-66472D01*
X76698Y-66472D01*
X76884Y-66601D02*
X76884Y-66301D01*
X77055Y-66601D01*
X77055Y-66301D01*
X77198Y-66601D02*
X77198Y-66301D01*
X77270Y-66301D01*
X77312Y-66315D01*
X77341Y-66344D01*
X77355Y-66372D01*
X77370Y-66430D01*
X77370Y-66472D01*
X77355Y-66530D01*
X77341Y-66558D01*
X77312Y-66587D01*
X77270Y-66601D01*
X77198Y-66601D01*
M02*
